<svg xmlns="http://www.w3.org/2000/svg" viewBox="0 0 67.1 64.93"><defs><style>.cls-1{fill:#3a2e26;}</style></defs><g id="レイヤー_2" data-name="レイヤー 2"><g id="編集モード"><path class="cls-1" d="M66.71,36c.81-3.55.34-6.45-1.22-7.39a2.81,2.81,0,0,0-2.88-.2,1.56,1.56,0,0,0-.73,1.48c0,.19,0,.33-.34.72a5.61,5.61,0,0,1-2.36,1.66c-.26.1-.51.19-.74.26a9.91,9.91,0,0,0-.84-6.79c-1.22-2.53-4.09-3.55-6.17-3.65-1.7-.09-4.27.55-4.9,1.47a1.12,1.12,0,0,0-.12,1.1,2,2,0,0,0,.78.8,3.19,3.19,0,0,1,1.45,1.87,14.83,14.83,0,0,1-.16,5.41c-.08.11-.14.21-.22.31A15,15,0,0,1,47,34.43a5.6,5.6,0,0,0-3.15-1c-1.4-3.33-3.13-5.61-5-6.59h0A25,25,0,0,1,40,24.13c.1-.18.2-.34.31-.51a20.27,20.27,0,0,1,6.89-3.29,4.69,4.69,0,0,1,3.4.83,2.45,2.45,0,0,0,1.24.48,1.17,1.17,0,0,0,1-.57c.66-1.06.22-4.45-.86-6.59C50.75,12,48,9.09,44.33,9a13.24,13.24,0,0,0-9.23,3,12.32,12.32,0,0,1-.16-1.75,8,8,0,0,1,.81-4c.36-.8.61-.9.9-1a1.75,1.75,0,0,0,1.24-1.45A3.46,3.46,0,0,0,36.21.59c-1.9-1.34-5.63-.35-9.49,2.53a16.17,16.17,0,0,0-6.58,9,14.21,14.21,0,0,0-11.28-.71c-2.1.71-6.4,3.42-7.47,6.31a4.69,4.69,0,0,0,.3,4.53,3.72,3.72,0,0,0,2.69,1.63A1.37,1.37,0,0,0,5.67,23a1,1,0,0,1,.17-.28,4.37,4.37,0,0,0,.44-.49l.31.16A7.25,7.25,0,0,1,9.4,24.82a24.53,24.53,0,0,0-2.47,1.34A14.33,14.33,0,0,0,.69,34.34C-.23,37-.52,40.84,1.69,43a4.48,4.48,0,0,0,3.1,1.5H5a2.4,2.4,0,0,0,1.72-.86c.46-.62.42-1.82-.11-3.54A7,7,0,0,1,8.33,38.3,7,7,0,0,1,10,37.48c-.13.68-.25,1.23-.36,1.7a14.48,14.48,0,0,0-.45,3.52,10.54,10.54,0,0,0,1.17,5,8.91,8.91,0,0,1,.75,2.07c.63,3.06,3.77,5.27,5.31,5.77a7.66,7.66,0,0,0,2.39.44,3,3,0,0,0,3-2.15,1.82,1.82,0,0,0-.23-1.64,2.87,2.87,0,0,1-.39-1.3c-.12-1.34,1.26-4.41,3.28-7.3,1.26-1.8,2.8-3.64,3.68-4.66.69,1.05,2.18,1.24,4.6,1.55l.43,0A6.7,6.7,0,0,1,36.77,42a18.1,18.1,0,0,0,1.89,1.2,6.86,6.86,0,0,0,1.17.5c.71,1.17,1.13,1.79,1.81,2-.45.91-1.13,2.26-1.87,3.46-1.47,2.42-3,4-3.78,4.23a1.62,1.62,0,0,1-.87.1,1.65,1.65,0,0,0-1.37.41c-1.32,1.2-1.17,2.72.43,4.51a7.11,7.11,0,0,0,4.72,2,4.47,4.47,0,0,0,1-.1,6.74,6.74,0,0,1,1.55-.1,7.9,7.9,0,0,0,3.79-.7,10.5,10.5,0,0,0,2.27-1.36c.18-.14.4-.29.63-.45a6.35,6.35,0,0,1-.08.8,4.7,4.7,0,0,1-.6,1.46c-2,.26-2.34.86-2.46,1.08a2,2,0,0,0-.09,1.62,3.38,3.38,0,0,0,2.13,2,3.89,3.89,0,0,0,1.5.29,7.75,7.75,0,0,0,4.87-2.21A10.78,10.78,0,0,0,57.1,56c.08-.62.13-1.21.16-1.76a5.48,5.48,0,0,1,2,1.06h0l-.09.28a.66.66,0,0,1-.09.12,1.23,1.23,0,0,0-.3,1.43,3,3,0,0,0,2.08,1.48,3.71,3.71,0,0,0,.61.06,4,4,0,0,0,2.75-1.27c1.76-1.7,2.25-5.51,2.12-7.07a10.73,10.73,0,0,0-3.53-7.22C65.31,41.16,66.1,38.63,66.71,36ZM49.83,34.27c1.82-2.31,2.38-4.83,2.07-5.43L51,29.3h0l-.2,0a13.13,13.13,0,0,0-.21-2.38,4.54,4.54,0,0,0-1.54-2.54,6.93,6.93,0,0,1,2.27-.31c1.53.08,3.63.79,4.47,2.53.91,1.91,1.68,4.61-.55,8.55-1.46,2.57-4.92,5-7.28,6.49l0-.15a13.94,13.94,0,0,0,.09-5.32A20.4,20.4,0,0,0,49.83,34.27ZM52,47.14a.39.39,0,0,1,.2-.5.33.33,0,0,1,.29,0,.41.41,0,0,1,.21.2.41.41,0,0,1,0,.29.36.36,0,0,1-.21.21.37.37,0,0,1-.5-.19Zm-.7-.57a1.13,1.13,0,0,0-.06.31,8.44,8.44,0,0,0-1.78-1.16,3.13,3.13,0,0,1-.75-.44,2.67,2.67,0,0,0-.36-.77,1.59,1.59,0,0,0-.2-.24,10.75,10.75,0,0,1,1.24.38,4.59,4.59,0,0,1,2,1.78A1.1,1.1,0,0,0,51.33,46.57ZM44.26,11c2.8.09,5,2.43,5.93,4.4a10.35,10.35,0,0,1,1,3.81,6.18,6.18,0,0,0-4.37-.81,17.34,17.34,0,0,0-3,1l-.3-.57,0-1h0c-.68,0-3.1,1.67-4.95,4.83a.08.08,0,0,0,0,0c-.1.18-.21.33-.31.52a27.42,27.42,0,0,0-1.46,3.37c-2.49.32-5.59,2.27-6.68,3-.32.21-.6.41-.85.61.48-3.73,1.66-10.14,4.31-13.69C37.35,11.4,41.26,10.86,44.26,11ZM20.49,28.14a1.38,1.38,0,0,0,1.18-.66l.07,0a6.84,6.84,0,0,1,3.54,1.6A13.23,13.23,0,0,1,27,31.31a3.74,3.74,0,0,0-1.21-.48,2.92,2.92,0,0,0-1.05,0h-.12a4.16,4.16,0,0,1-1.13-.8,10.29,10.29,0,0,0-3.22-1.89Zm-.66-1.41a.66.66,0,1,1,.66.66A.66.66,0,0,1,19.83,26.73ZM5,42.45H5Zm2.18-5.81a11.16,11.16,0,0,0-3.44,4.5,1,1,0,0,0,.38,1.19,3.92,3.92,0,0,1-1.08-.77C1.44,40,2,36.68,2.58,35A12.31,12.31,0,0,1,8,27.86a23.44,23.44,0,0,1,3.07-1.6.94.94,0,0,0,.15-.06C15.13,24.57,17.58,25,17.6,25a1,1,0,1,0,.42-2c-.14,0-2.7-.54-6.77,1a8.78,8.78,0,0,0-3.69-3.41A4.74,4.74,0,0,0,4,19.87a2.1,2.1,0,0,0-1,.57,3.61,3.61,0,0,1,.24-2C4,16.46,7.5,14,9.5,13.34a12.11,12.11,0,0,1,10.15.83,8.67,8.67,0,0,0,3,8.4A1,1,0,0,0,24,22.38a1,1,0,0,0-.18-1.4,6.66,6.66,0,0,1-2.17-6.65,14.41,14.41,0,0,1,6.26-9.6c3.55-2.65,6.36-3.06,7.14-2.51a1.92,1.92,0,0,1,.85,1.1,3.38,3.38,0,0,0-2,2,10,10,0,0,0-1,4.9,16.79,16.79,0,0,0,.44,3.33A18.19,18.19,0,0,0,32,15.3,24.81,24.81,0,0,0,28.34,24,10.26,10.26,0,0,0,27,21.56a1.43,1.43,0,0,0,.26-.82,1.41,1.41,0,1,0-1.41,1.41,1.55,1.55,0,0,0,.31,0,7.78,7.78,0,0,1,1.71,4.19c-.14.73-.26,1.43-.36,2.08a13,13,0,0,0-1.54-3.24,5.81,5.81,0,0,0-3.77-2.42l-.17,0a.2.2,0,0,0-.11,0,1.4,1.4,0,1,0-1.39,1.54,1.42,1.42,0,0,0,1.14-.59l.33.09a4.72,4.72,0,0,1,3.16,2,12.57,12.57,0,0,1,1.54,3.41c-.2-.23-.41-.47-.66-.73a7.72,7.72,0,0,0-4.13-1.91,1.39,1.39,0,0,0-1.38-1.18,1.41,1.41,0,0,0-1.41,1.4A1.39,1.39,0,0,0,19.89,28a7.18,7.18,0,0,0-5.29.92c-2.86,1.47-3.74,4.11-4.2,6.39A8.32,8.32,0,0,0,7.22,36.64ZM25.81,21.4a.66.66,0,1,1,.66-.66A.65.65,0,0,1,25.81,21.4Zm-4.66,1.41a.66.66,0,1,1-.66-.66A.67.67,0,0,1,21.15,22.81ZM37.92,40.36a8.75,8.75,0,0,0-4.45-1.83l-.42-.05c-1.81-.24-3.11-.41-3.23-.77a1,1,0,0,0-.31-.46l-.7-.6a1,1,0,0,0-1.39.1,68.1,68.1,0,0,0-4.55,5.68C21,45.13,19,48.81,19.24,51.05a4.83,4.83,0,0,0,.64,2.1l.05.08c-.18.53-.5,1.17-2.89.39-.94-.31-3.51-2-4-4.27a10.65,10.65,0,0,0-.89-2.51,8.55,8.55,0,0,1-1-4.14,12,12,0,0,1,.41-3.09c.11-.54.25-1.16.4-2l.13-.75c.43-2.42.87-4.92,3.39-6.21a6.38,6.38,0,0,1,2.88-.89,6.09,6.09,0,0,1,3.84,1.74c1.39,1.16,1.93,1.33,2.76,1.23a1.32,1.32,0,0,1,.44,0,3.79,3.79,0,0,1,1.65,1.13,1,1,0,0,0,.94.31,1,1,0,0,0,.76-.66,6.39,6.39,0,0,1,2.42-2.33c2.77-1.87,5.17-2.78,6.27-2.73h.05a1,1,0,0,1,.37.09c1.46.75,3,2.85,4.17,5.75,1.61,3.88,1.61,7.11,1,7.39a4.07,4.07,0,0,1-3.45-.29A16.88,16.88,0,0,1,37.92,40.36ZM46.3,56.55a8.9,8.9,0,0,1-1.91,1.15,6,6,0,0,1-3,.53,8.59,8.59,0,0,0-2,.15,4.87,4.87,0,0,1-3.76-1.32c-.91-1-.86-1.38-.69-1.59a3.73,3.73,0,0,0,1.65-.21c2.1-.7,4.41-4.35,4.85-5.08A49.64,49.64,0,0,0,44,45.44a1,1,0,0,0-.47-1.31L43,43.86a4.23,4.23,0,0,0,.95-.3c2.23-1,1.65-5,.71-8.06a3.27,3.27,0,0,1,1.32.62c.36.3.6,2.24.1,5a4.67,4.67,0,0,1-.77,2.16l0,.06a.64.64,0,0,0-.1.13,1.28,1.28,0,0,0-.11.2s0,0,0,0,0,.06,0,.09a1.79,1.79,0,0,0,0,.23.78.78,0,0,0,0,.16.66.66,0,0,0,.06.2.69.69,0,0,0,.07.15s0,.07.06.1l.07.05a1,1,0,0,0,.19.16l.15.08.06,0a2.54,2.54,0,0,1,1.11.66.62.62,0,0,1,.1.22c.21.71.59,1.06,1.77,1.65,2.38,1.2,2.49,2.36,2.4,4-.12,1.93-1.61,2.92-3,3.88l-.46.31C47,56,46.62,56.31,46.3,56.55Zm18.09-6.08c.13,1.45-.46,4.45-1.51,5.46a3.38,3.38,0,0,1-.37.31A4,4,0,0,0,61,54.05h0c-.14-.12-.27-.24-.45-.37a6.88,6.88,0,0,0-3.29-1.5,8.61,8.61,0,0,0-1.45-4.53,1,1,0,1,0-1.54,1.28s1.55,2,.89,6.77A8.75,8.75,0,0,1,52,61.26c-1.18,1.09-3,2-4.26,1.53h0a1.43,1.43,0,0,0,.2-.14A8.6,8.6,0,0,0,50,58.87a6.54,6.54,0,0,0,0-2.45,6.24,6.24,0,0,0,3-4.79,5.81,5.81,0,0,0-.65-3.52h0a1.23,1.23,0,0,0,.46-.1,1.12,1.12,0,0,0,.59-.62,1.14,1.14,0,0,0,0-.87,1.12,1.12,0,0,0-.63-.6,1.06,1.06,0,0,0-.53,0,5.66,5.66,0,0,0-2.51-2.18l-.06,0a7.58,7.58,0,0,1,2.05.09,3.34,3.34,0,0,1,2.2,1.46,1,1,0,0,0,.2.24l0,0A1.13,1.13,0,0,0,56,46.67a1.14,1.14,0,0,0-.76-2,1.23,1.23,0,0,0-.39.08l0,0-.07-.09A4.33,4.33,0,0,0,52,42.79a8.09,8.09,0,0,0-1.88-.13c.34-.22.68-.46,1-.71a6.13,6.13,0,0,1,2.78.08.41.41,0,0,0,.27,0s0,.1,0,.15a1.11,1.11,0,0,0,.62.6,1.15,1.15,0,0,0,.41.08,1.23,1.23,0,0,0,.46-.1,1.12,1.12,0,0,0,.58-1.49,1.11,1.11,0,0,0-2-.13.67.67,0,0,0-.12-.06,7,7,0,0,0-1.55-.24A17.55,17.55,0,0,0,57,36.13c.27-.47.49-.92.69-1.36a12.12,12.12,0,0,0,2.27-.67A7.58,7.58,0,0,0,63,31.93a2.86,2.86,0,0,0,.86-1.85,1.58,1.58,0,0,1,.58.22c.46.28,1,2.1.3,5.23s-1.6,5.14-4,6.58a.88.88,0,0,0-.28.17l-.07,0a6.39,6.39,0,0,1-3.89.48,1,1,0,1,0-.44,2,8.66,8.66,0,0,0,1.71.16,7.7,7.7,0,0,0,3.31-.72A8.65,8.65,0,0,1,64.39,50.47Zm-9.17-5h0a.45.45,0,0,1,.27.12.38.38,0,0,1-.55.53.4.4,0,0,1-.11-.27.45.45,0,0,1,.12-.27h0A.36.36,0,0,1,55.22,45.47Zm-.15-4.1h0a.42.42,0,0,1,.15,0,.32.32,0,0,1,.14,0,.38.38,0,0,1,0,.7.37.37,0,0,1-.5-.19.33.33,0,0,1,0-.29A.38.38,0,0,1,55.07,41.37Z"/></g></g></svg>