<?xml version="1.0" encoding="utf-8"?>
<!-- Generator: Adobe Illustrator 24.3.0, SVG Export Plug-In . SVG Version: 6.00 Build 0)  -->
<svg version="1.1" id="レイヤー_1" xmlns="http://www.w3.org/2000/svg" xmlns:xlink="http://www.w3.org/1999/xlink" x="0px"
	 y="0px" viewBox="0 0 830 266.8" style="enable-background:new 0 0 830 266.8;" xml:space="preserve">
<style type="text/css">
	.st0{fill:#3A2E26;}
</style>
<path class="st0" d="M805.1,83.9c-1,0-2.1,0-3.2-0.1c-16.6-1.1-22.7-8-30.3-16.6c-3.5-4.1-7.3-8-11.3-11.6
	c-9.7-8.6-17.5-11.7-31-12.2c-14-0.5-30.4-1.6-41.6-3.7c-2.9,4.4-8.2,7.9-14.9,9.8c3.9,0.4,7.7,1.5,11.2,3.1
	c5.3,2.4,10.3,5.6,14.8,9.3c0.5-2.8,2.3-5.2,4.8-6.5c4.5-2.1,9.5-0.2,9.7-0.1c0.6,0.2,0.9,0.9,0.7,1.5c-0.1,0.2-1.7,5.3-6.2,7.4
	c-1.1,0.5-2.3,0.8-3.5,0.8c-0.7,0-1.4-0.1-2.1-0.2c3.1,2.8,6.9,4.9,11,5.9c5.5,1.4,10.4,1.4,14.7,0c-1.7-1.6-2.7-3.7-2.8-6
	c-0.2-5,3.6-8.8,3.7-8.9c0.4-0.4,1.2-0.5,1.6-0.1c0.2,0.1,4.2,3.7,4.3,8.7c0,1-0.1,1.9-0.4,2.9c1.3-1.1,2.5-2.4,3.4-3.8
	c0.3-0.6,1.1-0.8,1.6-0.5s0.8,1.1,0.5,1.6l0,0c-3.1,4.6-7.9,7.8-13.3,9c1.3,0.6,2.5,1.5,3.4,2.7c3,4,2,9.3,2,9.5
	c-0.1,0.6-0.6,1-1.2,1c0,0-0.1,0-0.1,0c-0.2,0-5.5-0.7-8.5-4.7c-1.6-2.3-2-5.2-1.2-7.8c-2.8,0-5.5-0.4-8.2-1.1
	c-6.1-1.6-9.2-4.2-13.2-7.5c-1.7-1.4-3.5-2.9-5.7-4.5c0.7,1.5,1,3.2,0.7,4.8c-0.8,4.9-5.2,7.9-5.4,8c-0.5,0.3-1.2,0.2-1.6-0.3
	c-0.1-0.2-3.4-4.4-2.6-9.3c0.5-2.6,2.1-4.9,4.4-6.2c-1.8-1.1-3.9-2.2-6.3-3.3c-5.2-2.4-12.2-3.6-21-3.3c-2.9,0.3-5.9,0.5-9,0.6
	c-0.5,0-0.7,0.1-0.7,0.1c-0.2,0-0.3,0-0.5,0c-13.5,0.2-27-0.6-40.4-2.5c-14.8-1.9-29.5-4.6-44-8.1c-1.3-0.3-2.5-0.7-3.7-1.1
	c-0.7-0.2-1.4-0.4-2.1-0.7c0.1,0.2,0.2,0.5,0.2,0.7c0.6,2.8-0.4,6-3.1,9.5c-2.2,2.8-5.5,4.5-9,4.8c-0.5,0-0.9,0.1-1.4,0.1
	c-3.2,0-6.2-1-8.7-3.1c-0.5-0.4-0.6-1.2-0.2-1.7c0.4-0.5,1.2-0.6,1.7-0.2c0,0,0,0,0.1,0c2.3,1.9,5.3,2.8,8.3,2.4
	c2.9-0.2,5.5-1.6,7.3-3.9c1.5-2,3.3-5,2.7-7.6c-0.5-1.6-1.6-2.9-3-3.6c-1.7-0.8-3.3-1.7-4.8-2.5c-1.8-1-3.6-2-5.5-2.9
	c3.1,5.2,1.5,11.4,1.5,11.6c-0.2,0.6-0.8,1-1.4,0.9c-0.3-0.1-6.7-1.3-10-6.5c-2.5-4-1.3-8.3-0.8-9.9c-4.3-0.9-8.7-1.3-13.2-1.2
	c-4.5,0.1-9.6,1.4-15,3.3c3.4,1.1,6.4,3.2,8.6,6c0.4,0.5,0.3,1.2-0.2,1.6c-2.8,2.2-6.3,3.5-9.8,3.7c-0.5,0-1,0-1.5-0.1
	c-5.7-0.7-8.3-6.1-8.4-6.3c0-0.1-0.1-0.2-0.1-0.3c-1.8,0.8-3.6,1.6-5.4,2.3c-2.7,1.2-5.4,2.4-8,3.5C469,46.2,441.7,53,441.5,53
	c-0.6,0.2-1.3-0.2-1.5-0.8c-0.2-0.6,0.2-1.3,0.8-1.5c0,0,0,0,0,0c0.3-0.1,25.7-6.4,39.4-11.9c-0.3-0.6-3-5.5-0.5-10.4
	c2.8-5.5,9.1-7.4,9.3-7.4c0.6-0.2,1.2,0.1,1.5,0.7c0.1,0.3,2.3,6.4-0.4,11.9c-0.2,0.5-0.5,0.9-0.8,1.3l0.1-0.1
	c11.4-5,23.2-10.2,32.8-10.4c1.6,0,3.2,0,4.7,0.1c-2.4-1.9-3.9-4.7-4.2-7.7c-0.4-6.1,4.1-10.9,4.3-11.1c0.4-0.5,1.1-0.5,1.6-0.1
	c0.2,0.2,5.3,4.4,5.6,10.5c0.1,3.3-1.3,6.5-3.8,8.7c9.7,1.1,16.1,4.5,22.2,7.8c1.2,0.7,2.4,1.3,3.6,1.9c0.1,0,0.2,0.1,0.3,0.1
	c0.4,0.2,0.7,0.4,1,0.6c2.1,1,4.2,2,6.4,2.7c2.2,0.6,4.5,0.5,6.6-0.3c3-1.3,5.4-3.7,6.7-6.7c0.9-2.7,0.7-5.5-0.4-8.1
	c-1,2.7-3,4.9-5.5,6.4c-1.2,0.6-2.5,0.9-3.8,0.9c-1.7,0-3.3-0.4-4.8-1.2c-0.4-0.2-0.6-0.7-0.6-1.1c0-0.2,0.5-5,4.7-7.2
	c2.5-1.2,5.4-1.5,8.1-0.9c-1.5-1.8-3.6-3.1-5.8-3.8c-8.8-2.9-11.9,4.9-12.1,5.3c-0.2,0.6-0.9,0.9-1.5,0.7s-0.9-0.9-0.7-1.5l0,0
	c0-0.1,3.2-8.1,11.6-7.4c-0.3-0.3-0.5-0.7-0.8-1.1c-2.5-4.3-0.9-9.4-0.8-9.6c0.2-0.6,0.8-0.9,1.4-0.8c0.2,0.1,5.4,1.3,7.9,5.6
	c2.3,4.1,0.1,8.4,0,8.6c0,0,0,0.1-0.1,0.1c5.1,3.6,7.3,10.1,5.4,16c-1.5,3.6-4.4,6.6-8,8.1c-0.1,0-0.2,0.1-0.3,0.1
	c19.1,4.5,54.1,10.7,81.9,9.6c1.4-0.1,3.9-0.4,6.6-0.5c0.7,0,1.3-0.1,2-0.1c1.8-0.2,3.6-0.4,5.3-0.7c8-1.3,14.6-4.6,18-9.2
	c-3.9-0.9-6.9-1.9-8.7-3.1c-2.5-1.5-4-4.2-4.2-7.1c-0.1-2.4,1.1-4.7,3-6.2c1.9-1.7,4.6-2.3,7-1.6c3.4,1,6,4.1,7,6.8
	c1.2,3.1,1.1,6.5-0.3,9.5c9,1.6,22.8,2.8,40.5,3.5c13.9,0.5,22.4,3.9,32.4,12.8c4.1,3.7,7.9,7.6,11.5,11.8
	c7.6,8.6,13.1,14.8,28.7,15.8c10.9,0.7,16.9-2.6,20-5.5c3-2.8,4.8-6.8,4.7-11c0-4.3-2.8-10.8-7.8-14.3c-3.8-2.7-8.3-3.3-13.1-1.6
	c-4.1,1.4-6.5,3.8-7,7c-0.4,2.8,0.7,5.7,2.8,7.5c5.9,4.4,11-1.5,11.3-1.8c0.4-0.5,1.2-0.6,1.7-0.1s0.6,1.2,0.1,1.7l0,0
	c-2.3,2.7-8.3,6.7-14.5,2.1c-2.9-2.4-4.3-6.1-3.8-9.8c0.4-2.3,2-6.6,8.6-8.8c5.6-1.9,10.9-1.2,15.3,1.9c5.7,4,8.7,11.4,8.8,16.3
	c0,4.8-1.9,9.5-5.5,12.7C820.6,80.6,814.9,83.9,805.1,83.9z M730.1,69.3c1.4-1.3,2.3-3.1,2.3-5c-0.2-2.3-1.1-4.4-2.7-6.1
	c-1.4,1.8-2.2,4-2.3,6.2C727.6,66.4,728.6,68.1,730.1,69.3z M724,80.4c1.4,1.8,3.4,3,5.6,3.5c0.2-2.3-0.4-4.5-1.7-6.4
	c-1.2-1.5-3-2.4-4.9-2.5C722.6,76.8,723,78.8,724,80.4z M706.9,61.9c2-1.1,3.6-2.8,4.5-4.9c-2.2-0.6-4.5-0.5-6.6,0.4
	c-1.7,0.9-2.9,2.5-3.4,4.4C703.1,62.6,705.1,62.6,706.9,61.9z M687.3,64.6c-0.2,2.3,0.3,4.5,1.5,6.5c1.7-1.5,2.9-3.5,3.4-5.7
	c0.2-1.9-0.4-3.8-1.7-5.3C688.9,61,687.7,62.7,687.3,64.6L687.3,64.6z M488.7,23.7c-1.7,0.7-5.1,2.5-6.7,5.8c-1.1,2.4-1,5.1,0.1,7.5
	c2.5-0.5,4.7-2.1,6-4.4C489.7,29.3,489.1,25.5,488.7,23.7z M498.5,34.7c1.3,2.2,3.6,3.8,6.1,4.2c3.6,0.5,7-1.3,8.6-2.3
	c-1.3-1.4-4.1-4-7.7-4.4C502.9,31.9,500.4,32.8,498.5,34.7L498.5,34.7z M532,16.2c-0.2-3.7-2.6-6.6-3.9-8c-1.1,1.5-3.1,4.7-2.9,8.4
	c0.3,2.6,1.7,4.9,3.8,6.4C530.9,21.3,532,18.8,532,16.2z M544.1,32.9c-1.5-2.1-3.8-3.5-6.4-3.8c-0.9,2.5-0.6,5.2,0.7,7.4
	c2,3.1,5.5,4.6,7.3,5.1C545.9,39.8,546.1,36,544.1,32.9L544.1,32.9z M568.2,22.7c-1.7,1-2.9,2.6-3.3,4.5c1.8,0.7,3.8,0.7,5.5-0.1
	c2-1.2,3.5-2.9,4.3-5C572.6,21.5,570.3,21.7,568.2,22.7L568.2,22.7z M572.3,8.2c-1.2-1.9-3-3.4-5.2-4.1c-0.4,2.2-0.1,4.5,0.9,6.6
	c1,1.6,2.7,2.8,4.6,3.1C573.3,11.9,573.2,9.9,572.3,8.2z M687,28.8c-0.9-2.5-2.9-4.4-5.4-5.3c-0.5-0.1-0.9-0.2-1.4-0.2
	c-1.3,0-2.5,0.5-3.5,1.4c-1.3,1-2.1,2.5-2.1,4.2c0.2,2.1,1.4,4.1,3.2,5.2c1.6,1.1,4.5,2.1,8.7,2.9C687.8,34.4,688,31.5,687,28.8z
	 M651.6,44.8c-1.4,0-2.6-1.2-2.6-2.6s1.2-2.6,2.6-2.6s2.6,1.2,2.6,2.6C654.2,43.7,653,44.8,651.6,44.8L651.6,44.8z M637.7,44.4
	c-1.4,0-2.6-1.2-2.6-2.6s1.2-2.6,2.6-2.6s2.6,1.2,2.6,2.6C640.2,43.3,639.1,44.4,637.7,44.4L637.7,44.4z M623.7,43.2
	c-1.4,0-2.6-1.2-2.6-2.6s1.2-2.6,2.6-2.6s2.6,1.2,2.6,2.6C626.3,42,625.1,43.2,623.7,43.2L623.7,43.2z M609.8,41.3
	c-1.4,0-2.6-1.2-2.6-2.6s1.2-2.6,2.6-2.6s2.6,1.2,2.6,2.6C612.4,40.1,611.2,41.3,609.8,41.3L609.8,41.3z M595.8,38.8
	c-1.4,0-2.6-1.2-2.6-2.6s1.2-2.6,2.6-2.6s2.6,1.2,2.6,2.6C598.4,37.6,597.3,38.8,595.8,38.8L595.8,38.8z M463,39.1
	c-2.4,1.7-5.2,2.5-8.2,2.5c-2,0-4-0.4-5.9-1c-0.4-0.2-0.7-0.6-0.7-1.1c0-0.3-0.3-8.3,6-12.8c6.8-4.8,15.6-3.1,16-3
	c0.6,0.1,1,0.7,0.9,1.3C471.1,25.4,469.8,34.3,463,39.1L463,39.1z M455.6,28.6c-4.2,3-4.9,8-5,10c1.9,0.5,6.9,1.5,11.1-1.4
	c4.6-3.3,6.3-8.9,6.9-11.3C466,25.6,460.2,25.4,455.6,28.6L455.6,28.6z M438.3,34.3c1.6,1.5,2.7,3.5,2.8,5.7
	c0.1,1.2-0.3,4.3-1.7,5.6c-0.6,0.6-1.4,1-2.2,1c-0.2,0-0.3,0-0.5,0c-0.7-0.1-1.3-0.6-1.7-1.2c-0.2-0.4-0.1-0.9,0.2-1.1
	c0,0,0.1-0.1,0.1-0.1c0-0.1,0.1-0.1,0.1-0.2l0,0c-0.5-0.4-1-0.7-1.6-0.8c0,0.4-0.1,0.9-0.1,1.4c-0.3,2.1-1.3,4-3,5.4
	c-1,1-2.4,1.6-3.9,1.8c-0.4,0-0.8-0.1-1.2-0.2c-0.8-0.2-1.4-0.8-1.7-1.6c-0.2-0.4-0.1-0.9,0.1-1.3c0.1-0.2,0.4-0.7,2-0.9
	c0.2-0.4,0.4-0.7,0.5-1.2c0-0.2,0.1-0.4,0.1-0.6c-0.2,0.1-0.4,0.3-0.5,0.4c-0.6,0.4-1.2,0.8-1.8,1.1c-0.9,0.4-2,0.6-3,0.6
	c-0.4,0-0.8,0-1.2,0.1c-0.3,0.1-0.5,0.1-0.8,0.1c-1.4-0.1-2.7-0.6-3.8-1.6c-1.3-1.4-1.4-2.6-0.3-3.6c0.3-0.3,0.7-0.4,1.1-0.3
	c0.2,0,0.5,0,0.7-0.1c1.3-0.8,2.3-2,3-3.4c0.6-1,1.1-2,1.5-2.8c-0.5-0.2-0.9-0.6-1.4-1.6c-0.3-0.1-0.6-0.2-0.9-0.4
	c-0.5-0.3-1-0.6-1.5-1c-0.8-0.7-1.8-1.1-2.8-1.2l-0.3,0c-1.9-0.2-3.1-0.4-3.7-1.2c-0.7,0.8-1.9,2.3-2.9,3.7
	c-1.6,2.3-2.7,4.7-2.6,5.8c0,0.4,0.1,0.7,0.3,1c0.3,0.4,0.3,0.9,0.2,1.3c-0.3,1.1-1.3,1.8-2.4,1.7c-0.6,0-1.3-0.1-1.9-0.4
	c-2-0.8-3.6-2.5-4.2-4.6c-0.1-0.6-0.3-1.1-0.6-1.7c-0.6-1.2-1-2.6-0.9-4c0-0.9,0.1-1.9,0.4-2.8c0.1-0.4,0.2-0.8,0.3-1.4
	c-0.5,0.2-0.9,0.4-1.3,0.7c-0.5,0.4-1,0.9-1.3,1.4c0.4,1.4,0.4,2.3,0.1,2.8c-0.3,0.4-0.8,0.7-1.4,0.7c-0.1,0-0.1,0-0.2,0
	c-0.9-0.1-1.8-0.5-2.5-1.2c-1.8-1.7-1.5-4.8-0.8-6.9c0.8-2.7,2.6-5,5-6.5c0.6-0.4,1.3-0.7,2-1.1c-0.6-0.8-1.3-1.5-2.2-1.9
	c-0.1,0-0.2-0.1-0.2-0.1c-0.1,0.1-0.2,0.3-0.4,0.4c-0.1,0.1-0.1,0.1-0.1,0.2c-0.1,0.4-0.6,0.7-1,0.7c-0.9-0.1-1.7-0.6-2.1-1.3
	c-0.7-1.1-0.8-2.4-0.2-3.6c0.8-2.3,4.3-4.5,5.9-5c2.9-1.1,6.2-0.9,9,0.6c0.8-2.9,2.7-5.5,5.2-7.2c3.1-2.3,6-3.1,7.6-2
	c0.9,0.5,1.4,1.5,1.3,2.5c-0.1,0.5-0.5,1-1,1.2c-0.4,0.1-0.6,0.4-0.7,0.8c-0.5,1-0.7,2.1-0.6,3.2c0,0.5,0.1,0.9,0.1,1.4
	c2.1-1.7,4.7-2.6,7.3-2.4c2.9,0.1,5.1,2.4,6.1,4.4c0.9,1.7,1.2,4.4,0.7,5.2c-0.2,0.3-0.5,0.5-0.8,0.5c-0.4,0-0.7-0.2-1-0.4
	c-0.8-0.6-1.7-0.8-2.7-0.7c-2,0.5-3.8,1.4-5.5,2.6c-0.1,0.1-0.2,0.3-0.2,0.4c-0.4,0.7-0.7,1.4-0.9,2.1h0c1.5,0.8,2.9,2.6,4,5.2
	c0.9,0,1.8,0.3,2.5,0.8c0.4-0.4,0.7-0.7,1-1.1c0.1-0.1,0.1-0.2,0.2-0.2c0.3-1.4,0.4-2.9,0.1-4.3c-0.2-0.6-0.6-1.2-1.2-1.5
	c-0.3-0.2-0.5-0.4-0.6-0.6c-0.1-0.3-0.1-0.6,0.1-0.9c0.5-0.7,2.6-1.2,3.9-1.2c2,0,3.9,1.1,4.9,2.9c0.9,1.7,1.1,3.6,0.7,5.4
	c0.2-0.1,0.4-0.1,0.6-0.2c0.7-0.3,1.4-0.7,1.9-1.3c0.2-0.1,0.3-0.3,0.3-0.6c0-0.5,0.2-0.9,0.6-1.2c0.7-0.4,1.6-0.3,2.3,0.2
	c1.2,0.7,1.6,3.1,1,5.9C440.9,30.7,440.3,32.8,438.3,34.3L438.3,34.3z M392.3,33.8L392.3,33.8C392.3,33.8,392.3,33.8,392.3,33.8
	C392.3,33.8,392.3,33.8,392.3,33.8L392.3,33.8z M416.9,2.6c-0.1-0.4-0.4-0.7-0.7-0.9c-0.6-0.4-2.9-0.1-5.7,2c-2.6,1.8-4.4,4.5-5,7.6
	c-0.5,1.9,0.2,4,1.7,5.3c0.3,0.3,0.3,0.8,0,1.1c-0.3,0.3-0.7,0.3-1,0.1c-2-1.6-2.9-4.2-2.4-6.7c-2.5-1.4-5.4-1.6-8.1-0.7
	c-1.6,0.5-4.4,2.5-5,4.1c-0.2,0.5-0.3,1-0.2,1.6c0.2-0.2,0.5-0.4,0.8-0.5c1-0.2,2,0,2.9,0.6c1.2,0.6,2.2,1.5,2.9,2.7
	c1.7-0.7,3.6-1,5.4-0.8c0.4,0.1,0.7,0.6,0.5,1c-0.1,0.4-0.5,0.6-0.8,0.6c-1.8-0.1-3.5,0.2-5.1,0.9c0,0-0.1,0-0.1,0
	c-0.8,0.4-1.7,0.8-2.4,1.3c-2.1,1.3-3.6,3.3-4.3,5.7c-0.5,1.3-0.9,4,0.4,5.2c0.2,0.3,0.5,0.5,0.9,0.6c-0.3-0.2-0.4-0.6-0.3-1
	c0.6-1.4,1.5-2.6,2.7-3.6c0.8-0.5,1.6-0.9,2.5-1.1c0.4-1.8,1.1-3.9,3.3-5.1c1.3-0.8,2.8-1,4.2-0.7c-0.6-0.3-0.8-0.9-0.5-1.5
	c0.3-0.6,0.9-0.8,1.5-0.5c0.3,0.2,0.6,0.5,0.6,0.8c1.2,0.2,2.4,0.7,3.3,1.5c0.2,0.2,0.4,0.4,0.5,0.6c-0.3-1-0.7-1.9-1.2-2.7
	c-0.6-0.9-1.5-1.4-2.5-1.6c-0.1,0-0.2,0-0.3-0.1c-0.4,0.5-1.1,0.6-1.6,0.3c-0.5-0.4-0.6-1.1-0.3-1.6c0.4-0.5,1.1-0.6,1.6-0.3
	c0.3,0.2,0.4,0.5,0.5,0.8c0,0,0.1,0,0.1,0c0,0,0.1,0,0.1,0c1.2,0.2,2.3,0.9,3,1.9c0.5,0.8,0.9,1.7,1.2,2.6c0.1-0.5,0.2-1.1,0.3-1.7
	c-0.1-1.2-0.6-2.4-1.4-3.3c-0.1,0-0.2,0-0.2,0c-0.6,0-1.1-0.5-1.1-1.1c0-0.6,0.5-1.1,1.1-1.1s1.1,0.5,1.1,1.1c0,0,0,0,0,0
	c0,0.2-0.1,0.5-0.2,0.6c0.5,0.6,0.8,1.2,1.1,1.9c0.5-2.5,1.5-4.8,2.9-6.9c0.4-0.5,0.7-0.9,1.1-1.4c-0.2-0.9-0.3-1.8-0.4-2.6
	c-0.1-1.3,0.2-2.7,0.8-3.9C415.6,3.5,416.1,2.9,416.9,2.6z M404.6,21.8c0.3,0,0.5-0.2,0.5-0.5s-0.2-0.5-0.5-0.5s-0.5,0.2-0.5,0.5
	c0,0,0,0,0,0C404.1,21.6,404.3,21.8,404.6,21.8C404.6,21.8,404.6,21.8,404.6,21.8z M404.5,22.4c0.9,0.3,1.8,0.8,2.6,1.5
	c0.3,0.3,0.6,0.5,0.9,0.6l0,0c0,0,0.1,0,0.1,0c0.3,0,0.6,0,0.8,0c0.3,0.1,0.7,0.2,1,0.4c-0.4-0.6-0.9-1.2-1.4-1.8
	c-0.8-0.7-1.8-1.1-2.8-1.3c0,0,0,0-0.1,0C405.3,22.3,404.9,22.5,404.5,22.4L404.5,22.4z M405.1,18.2c0-0.3-0.2-0.5-0.5-0.5
	c-0.3,0-0.5,0.2-0.5,0.5c0,0.3,0.2,0.5,0.5,0.5c0,0,0,0,0,0C404.9,18.7,405.1,18.4,405.1,18.2C405.1,18.2,405.1,18.2,405.1,18.2
	L405.1,18.2z M409.4,16.5c0-0.3-0.2-0.5-0.5-0.5c-0.3,0-0.5,0.2-0.5,0.5c0,0.3,0.2,0.5,0.5,0.5c0,0,0,0,0,0
	C409.1,17,409.4,16.8,409.4,16.5z M422.9,14.2L422.9,14.2l0,0.8l0.2,0.5c0.8-0.3,1.6-0.6,2.4-0.8c1.2-0.2,2.4,0,3.5,0.6
	c-0.1-1-0.3-2.1-0.8-3c-0.8-1.6-2.5-3.4-4.7-3.5c-2.4-0.1-5.5,0.3-8.5,4.4c-2.1,2.8-3,7.9-3.4,10.9c0.2-0.2,0.4-0.3,0.7-0.5
	c1.6-1.1,3.4-2,5.3-2.4c0.3-0.9,0.7-1.8,1.2-2.7c0.1-0.1,0.2-0.3,0.2-0.4c0,0,0,0,0,0C420.5,15.5,422.4,14.2,422.9,14.2z
	 M421.8,27.3c-1-2.3-2.2-4-3.3-4.6c-0.1,0-0.2-0.1-0.3-0.1c0,0,0,0,0,0h0c-0.9,0-2.8,0.7-5,2.2c-0.8,0.4-1.5,1.1-1.9,1.9
	c-0.1,0.3-0.3,0.5-0.6,0.5c-0.3,0.1-0.6,0-0.7-0.2c-0.3-0.4-0.8-0.7-1.3-0.9c-0.1,0-0.2,0-0.4,0c-0.7,0.1-1.1-0.1-2.2-1
	c-0.8-0.8-1.9-1.3-3.1-1.4c-0.8,0-1.6,0.3-2.3,0.7c-2,1-2.4,3-2.7,4.9l-0.1,0.6c-0.1,0.6-0.2,1.1-0.3,1.6c-0.2,0.8-0.3,1.6-0.3,2.5
	c0,1.1,0.3,2.3,0.8,3.3c0.3,0.6,0.6,1.3,0.7,2c0.5,1.5,1.7,2.8,3.2,3.4c1.9,0.6,2.2,0.1,2.3-0.3c0,0,0,0,0-0.1
	c-0.3-0.5-0.5-1.1-0.5-1.7c-0.2-1.8,1.4-4.7,2.9-6.9c1.1-1.6,2.3-3.1,3.6-4.5c0.3-0.3,0.8-0.3,1.1-0.1l0.6,0.5
	c0.1,0.1,0.2,0.2,0.2,0.4c0.1,0.3,1.1,0.4,2.6,0.6l0.3,0c1.3,0.1,2.5,0.7,3.5,1.5c0.4,0.3,0.9,0.6,1.4,0.9c0.8,0.5,1.8,0.6,2.7,0.2
	C423.1,33,423.1,30.4,421.8,27.3z M425.6,36.5c0-0.1,0-0.1-0.1-0.2c-0.2-0.2-0.5-0.4-0.9-0.5c0,0,0,0,0,0c-0.1,0-0.2-0.1-0.3-0.2
	c0,0,0,0-0.1,0c0,0,0-0.1,0-0.1c0,0,0-0.1-0.1-0.1c0-0.1,0-0.1,0-0.2c0,0,0-0.1,0-0.1c0-0.1,0-0.1,0-0.2c0,0,0,0,0-0.1s0,0,0,0
	c0-0.1,0.1-0.1,0.1-0.2c0,0,0-0.1,0.1-0.1c0,0,0,0,0,0c0.3-0.5,0.6-1.1,0.6-1.7c0.4-2.2,0.2-3.7-0.1-4c-0.3-0.2-0.7-0.4-1-0.5
	c0.7,2.4,1.2,5.6-0.6,6.4c-0.2,0.1-0.5,0.2-0.8,0.2l0.4,0.2c0.4,0.2,0.6,0.6,0.4,1c-0.6,1.3-1.2,2.6-2,3.8c-0.4,0.6-2.2,3.5-3.9,4
	c-0.4,0.2-0.9,0.2-1.3,0.2c-0.1,0.2-0.2,0.5,0.5,1.3c0.8,0.8,1.9,1.1,3,1.1c0.5-0.1,1.1-0.1,1.6-0.1c0.8,0.1,1.6-0.1,2.3-0.4
	c0.5-0.2,1-0.5,1.5-0.9c0.3-0.2,0.6-0.4,1-0.7l0.4-0.2c1.1-0.8,2.3-1.6,2.4-3.1c0.1-1.3,0-2.2-1.9-3.2
	C426.3,37.6,425.8,37.1,425.6,36.5z M429.1,37.3c0-0.1,0-0.2,0-0.2c0,0,0-0.1,0.1-0.1c-0.4-0.6-0.9-1.1-1.6-1.4
	c-0.3-0.1-0.7-0.2-1-0.3c0.1,0.1,0.1,0.1,0.2,0.2c0.1,0.2,0.2,0.4,0.3,0.6c0.2,0.1,0.4,0.3,0.6,0.4C428.2,36.6,428.7,37,429.1,37.3
	L429.1,37.3z M432.7,21.2c-0.8-1.2-2.1-2-3.6-2c-0.6,0-1.2,0.1-1.8,0.2c0.6,0.5,1.1,1.2,1.2,2c0.1,0.6,0.2,1.3,0.2,1.9l0.2,0v0
	l0.7-0.4c0.2,0.5-0.2,2.5-1.6,4.3c-0.4,0.5-0.9,1-1.4,1.5c0.2,1.4,0.2,2.8-0.1,4.2c0,0,0,0.1,0,0.1c1.9-1.2,4.6-3.1,5.8-5.2
	C434,24.8,433.4,22.7,432.7,21.2L432.7,21.2z M439.6,24.1c-0.1-0.1-0.3-0.1-0.5-0.2c0,0.6-0.3,1.1-0.7,1.5c-0.7,0.8-1.5,1.4-2.5,1.7
	c-0.6,0.2-1.2,0.4-1.8,0.5c-0.2,0.4-0.3,0.7-0.5,1.1c-0.9,1.4-2.1,2.7-3.5,3.7c0.4,0,0.8,0.1,1.2,0.2c0,0,0.1,0,0.1,0.1
	c0.1-0.2,0.2-0.3,0.4-0.4c0.5-0.2,1,0,1.2,0.5c0.2,0.5,0,1-0.5,1.2l0,0c-0.2,0.1-0.5,0.1-0.7,0c-0.2-0.1-0.4-0.3-0.5-0.5
	c0,0,0-0.1,0-0.1c-0.1,0-0.1,0-0.2,0c-0.7-0.2-1.5-0.2-2.2-0.1c-0.3,0.2-0.6,0.4-0.8,0.6c0.5,0,1,0,1.5,0.1c0.9,0.2,1.7,0.7,2.2,1.5
	l0.1,0.1c0,0,0,0,0,0c0.1,0,0.2-0.1,0.3-0.1c0.5,0,0.9,0.4,0.9,0.9s-0.4,0.9-0.9,0.9c-0.5,0-0.9-0.4-0.9-0.9c0-0.1,0-0.2,0-0.3
	c0,0,0,0,0,0c-0.1-0.1-0.1-0.1-0.2-0.2c-0.4-0.6-1-1-1.8-1.2c-0.5-0.1-1.1-0.1-1.6-0.1l0,0c0.8,0.4,1.5,1,2,1.7
	c0.5-0.1,0.9,0.3,1,0.8c0,0.4-0.2,0.8-0.5,0.9c-0.1,0.1-0.2,0.1-0.4,0.1c0,0,0,0,0,0c0.5,0.9,0.6,1.8,0.5,2.8c-0.1,1.6-1,3-2.4,3.8
	c0.1,0.6,0.1,1.3,0,1.9c-0.3,1.1-0.8,2.2-1.6,3c0,0-0.1,0.1-0.2,0.1l0,0c1,0.4,2.4-0.4,3.4-1.2c1.4-1.1,2.2-2.7,2.5-4.4
	c0.5-3.8-0.7-5.4-0.7-5.4c-0.3-0.3-0.3-0.8,0-1.1s0.8-0.3,1.1,0c0,0,0.1,0.1,0.1,0.1c0.7,1.1,1.1,2.3,1.2,3.6c1,0.2,1.9,0.6,2.6,1.2
	c0.1,0.1,0.2,0.2,0.4,0.3l0,0c0.6,0.4,1,1,1.2,1.7c0.1-0.1,0.2-0.2,0.3-0.2c0.8-0.8,1.3-3.2,1.2-4.3c-0.1-2-1.1-3.8-2.6-5
	c-0.8,0.4-1.7,0.6-2.6,0.6c-0.5,0-0.9,0-1.4-0.1c-0.4-0.1-0.6-0.6-0.5-1c0.1-0.4,0.5-0.6,0.9-0.5c1,0.2,2.1,0.1,3.1-0.4c0,0,0,0,0,0
	c0.1-0.1,0.1-0.1,0.2-0.1c1.9-1.1,2.6-2.7,3.2-5.2C440.4,25.8,440,24.3,439.6,24.1L439.6,24.1z M432,33.1c-0.1,0.2,0,0.3,0.2,0.4
	s0.3,0,0.4-0.2c0.1-0.2,0-0.3-0.2-0.4c0,0-0.1,0-0.1,0c0,0-0.1,0-0.1,0l0,0C432.1,33,432,33,432,33.1L432,33.1z M432,36.5
	c0,0.2,0.1,0.3,0.3,0.3s0.3-0.1,0.3-0.3c0-0.2-0.1-0.3-0.3-0.3h0c-0.1,0-0.2,0-0.2,0.1l0,0C432,36.3,432,36.4,432,36.5L432,36.5z
	 M429.7,37.5c0.1,0.2,0.2,0.2,0.4,0.2c0.1,0,0.1-0.1,0.2-0.2c0.1-0.2,0-0.3-0.2-0.4c-0.1,0-0.2,0-0.2,0
	C429.7,37.2,429.6,37.4,429.7,37.5C429.7,37.5,429.7,37.5,429.7,37.5z M381.1,40.6c-1.9,0.7-3.9,1.1-5.9,1c-2.9,0-5.8-0.8-8.2-2.5
	c-6.8-4.8-8.1-13.7-8.1-14.1c-0.1-0.6,0.3-1.2,0.9-1.3c0.4-0.1,9.2-1.8,16,3c6.3,4.5,6,12.5,6,12.8C381.8,40,381.5,40.4,381.1,40.6
	L381.1,40.6z M374.4,28.6c-4.6-3.3-10.5-3.1-13-2.8c0.6,2.4,2.3,8,6.9,11.3c4.2,3,9.2,2,11.1,1.4C379.3,36.7,378.6,31.6,374.4,28.6
	L374.4,28.6z M389.1,50.7c0.6,0.1,1,0.8,0.9,1.4c-0.1,0.6-0.8,1-1.4,0.9c0,0,0,0,0,0c-0.3-0.1-27.5-6.9-41-12.5
	c-2.6-1.1-5.4-2.3-8-3.5c-1.8-0.8-3.6-1.6-5.4-2.3c0,0.1,0,0.2-0.1,0.3c-0.1,0.2-2.7,5.5-8.4,6.3c-0.5,0.1-1,0.1-1.5,0.1
	c-3.6-0.2-7-1.4-9.8-3.7c-0.5-0.4-0.6-1.1-0.2-1.6c2.2-2.9,5.1-5,8.6-6c-5.4-1.9-10.5-3.2-15-3.3c-4.4-0.2-8.8,0.2-13.2,1.2
	c0.6,1.6,1.7,5.9-0.8,9.9c-3.3,5.2-9.7,6.5-10,6.5c-0.1,0-0.1,0-0.2,0c-0.5,0-1-0.4-1.2-0.9c-0.1-0.3-1.7-6.5,1.5-11.6
	c-1.9,0.9-3.7,1.9-5.5,2.9c-1.6,0.9-3.2,1.7-4.8,2.5c-1.5,0.7-2.6,2.1-3,3.6c-0.6,2.6,1.1,5.5,2.7,7.6c1.8,2.3,4.5,3.7,7.3,3.9
	c3,0.4,5.9-0.5,8.3-2.4c0.5-0.4,1.2-0.4,1.7,0.1c0.4,0.5,0.4,1.2-0.1,1.7c0,0,0,0,0,0c-2.4,2-5.5,3.1-8.7,3.1c-0.5,0-0.9,0-1.4-0.1
	c-3.5-0.3-6.8-2-9-4.8c-2.7-3.5-3.7-6.8-3.1-9.5c0.1-0.2,0.1-0.5,0.2-0.7c-0.7,0.3-1.4,0.5-2.1,0.7c-1.2,0.4-2.4,0.8-3.7,1.1
	c-14.5,3.5-29.2,6.2-44,8.1c-13.4,1.9-26.9,2.7-40.4,2.5c-0.2,0-0.3,0.1-0.5,0c0,0-0.3,0-0.7-0.1c-3.2-0.1-6.2-0.3-9.1-0.6
	c-8.8-0.2-15.8,0.9-21,3.3c-2.4,1.1-4.5,2.2-6.3,3.3c2.3,1.3,3.9,3.6,4.4,6.2c0.8,4.9-2.5,9.2-2.6,9.3c-0.4,0.5-1.1,0.6-1.6,0.3
	c-0.2-0.1-4.6-3.1-5.4-8c-0.3-1.6,0-3.3,0.7-4.8c-2.2,1.6-4,3.1-5.7,4.5c-3.9,3.3-7.1,5.9-13.2,7.5c-2.7,0.7-5.4,1.1-8.2,1.1
	c0.8,2.7,0.3,5.5-1.2,7.8c-3,4-8.2,4.7-8.5,4.7c0,0-0.1,0-0.1,0c-0.6,0-1.1-0.4-1.2-1c0-0.2-1-5.5,2-9.5c0.9-1.2,2-2.1,3.4-2.7
	c-5.5-1.1-10.2-4.3-13.3-9c-0.3-0.6-0.1-1.3,0.5-1.6c0.6-0.3,1.3-0.1,1.6,0.5l0,0c0.9,1.5,2.1,2.8,3.5,3.9c-0.3-0.9-0.5-1.9-0.4-2.9
	c0.2-5,4.2-8.5,4.3-8.7c0.5-0.4,1.2-0.4,1.6,0.1c0.2,0.2,3.9,4,3.7,8.9c-0.1,2.3-1.2,4.5-2.9,6c3.7,1.2,8.5,1.5,14.7-0.1
	c4.1-1.1,7.8-3.1,10.9-5.9c-0.7,0.2-1.4,0.2-2.1,0.2c-1.2,0-2.4-0.3-3.5-0.8c-4.5-2.1-6.1-7.2-6.2-7.4c-0.2-0.6,0.1-1.2,0.7-1.5
	c0.2-0.1,5.2-2,9.7,0.1c2.5,1.3,4.3,3.7,4.8,6.5c4.5-3.7,9.5-6.8,14.8-9.3c3.6-1.6,7.4-2.6,11.2-3.1c-6.7-2-12-5.4-14.9-9.8
	c-11.1,2.1-27.6,3.2-41.6,3.7c-13.4,0.5-21.2,3.6-31,12.2c-4,3.6-7.8,7.5-11.3,11.6c-7.7,8.7-13.7,15.5-30.3,16.6
	c-1.1,0.1-2.2,0.1-3.2,0.1c-9.8,0-15.5-3.3-18.7-6.3c-3.5-3.3-5.5-7.9-5.5-12.7c0-4.9,3.1-12.2,8.8-16.3c4.4-3.2,9.7-3.8,15.3-1.9
	c6.6,2.2,8.2,6.5,8.6,8.8c0.6,3.7-0.9,7.4-3.8,9.8c-6.2,4.6-12.2,0.6-14.5-2.1c-0.4-0.5-0.3-1.3,0.2-1.7c0.5-0.4,1.2-0.3,1.7,0.1
	c0.2,0.2,5.3,6.1,11.2,1.8c2.2-1.9,3.2-4.7,2.8-7.5c-0.5-3.2-2.9-5.6-7-7c-4.9-1.7-9.3-1.1-13.1,1.6c-5,3.6-7.7,10-7.8,14.3
	c0,4.2,1.7,8.2,4.7,11c3.1,2.9,9.1,6.2,20,5.5c15.6-1.1,21.1-7.3,28.7-15.8c3.6-4.2,7.4-8.2,11.5-11.8c10.1-8.9,18.6-12.2,32.4-12.8
	c17.7-0.7,31.4-1.9,40.5-3.5c-1.4-3-1.5-6.4-0.3-9.5c1-2.7,3.6-5.8,7-6.8c2.5-0.7,5.1-0.1,7,1.6c1.9,1.4,3.1,3.7,3,6.2
	c-0.2,2.9-1.8,5.5-4.2,7.1c-1.7,1.2-4.8,2.2-8.7,3.1c3.4,4.5,10,7.9,18,9.2c1.7,0.3,3.5,0.5,5.3,0.7c0.7,0,1.3,0,2,0.1
	c2.6,0.1,5.1,0.4,6.6,0.5c27.8,1,62.8-5.1,81.9-9.6c-0.1,0-0.2-0.1-0.3-0.1c-3.6-1.5-6.5-4.4-8-8.1c-1.9-5.9,0.2-12.4,5.4-16
	c0,0,0-0.1-0.1-0.1c-0.1-0.2-2.3-4.5,0-8.6c2.5-4.3,7.6-5.6,7.9-5.6c0.6-0.1,1.2,0.2,1.4,0.8c0.1,0.2,1.6,5.3-0.8,9.6
	c-0.2,0.4-0.5,0.7-0.8,1.1c8.4-0.7,11.6,7.3,11.6,7.4c0.2,0.6-0.1,1.3-0.7,1.5c-0.6,0.2-1.3-0.1-1.5-0.7c-1.9-4.8-7.3-7.1-12-5.3
	c0,0,0,0,0,0c-2.2,0.7-4.3,2-5.8,3.8c2.7-0.6,5.6-0.3,8.1,0.9c4.2,2.2,4.7,7,4.7,7.2c0,0.5-0.2,0.9-0.6,1.1
	c-1.5,0.8-3.1,1.2-4.8,1.2c-1.3,0-2.6-0.3-3.8-0.9c-2.5-1.4-4.4-3.7-5.5-6.4c-1.1,2.6-1.2,5.4-0.4,8.1c1.3,3,3.7,5.4,6.7,6.7
	c2.1,0.8,4.4,0.9,6.6,0.3c2.2-0.8,4.3-1.7,6.4-2.7c0.3-0.2,0.7-0.4,1-0.6c0.1,0,0.2-0.1,0.3-0.1c1.2-0.6,2.4-1.3,3.6-1.9
	c6.2-3.3,12.5-6.8,22.2-7.8c-2.5-2.2-3.8-5.4-3.8-8.7c0.4-6.1,5.4-10.3,5.6-10.5c0.5-0.4,1.2-0.4,1.6,0.1c0.2,0.2,4.7,5,4.3,11.1
	c-0.3,3-1.8,5.8-4.2,7.7c1.5-0.1,3-0.1,4.7-0.1c9.6,0.2,21.4,5.4,32.8,10.4l0.1,0.1c-0.3-0.4-0.6-0.8-0.8-1.3
	c-2.8-5.5-0.5-11.7-0.4-11.9c0.2-0.6,0.9-0.9,1.5-0.7c0.3,0.1,6.6,2,9.3,7.5c2.5,5-0.2,9.9-0.5,10.4
	C363.4,44.3,388.8,50.7,389.1,50.7L389.1,50.7z M102.5,64.4c0-2.3-0.8-4.5-2.3-6.2c-1.5,1.7-2.5,3.8-2.7,6.1c0,1.9,0.8,3.8,2.3,5
	C101.4,68.1,102.4,66.4,102.5,64.4z M106.9,74.9c-1.9,0.1-3.7,1-4.9,2.5c-1.2,1.9-1.8,4.2-1.7,6.4c2.2-0.5,4.2-1.7,5.6-3.5
	C107,78.8,107.4,76.8,106.9,74.9z M125.2,57.4c-2.1-0.9-4.4-1-6.6-0.4c0.9,2.1,2.5,3.8,4.5,4.9c1.8,0.8,3.8,0.7,5.5-0.1
	C128.2,59.9,126.9,58.3,125.2,57.4L125.2,57.4z M137.8,65.3c0.5,2.2,1.7,4.2,3.4,5.7c1.2-1.9,1.7-4.2,1.5-6.5
	c-0.4-1.9-1.6-3.5-3.2-4.5C138.2,61.5,137.6,63.4,137.8,65.3L137.8,65.3z M152.1,34c1.8-1.1,3-3,3.2-5.2c0-1.7-0.8-3.2-2.1-4.2
	c-1-0.8-2.2-1.3-3.5-1.4c-0.5,0-0.9,0.1-1.4,0.2c-2.5,0.9-4.5,2.8-5.4,5.3c-1,2.7-0.8,5.6,0.5,8.1C147.7,36.1,150.6,35.1,152.1,34
	L152.1,34z M257.4,13.7c1.9-0.3,3.6-1.4,4.6-3.1c1-2,1.3-4.3,0.9-6.6c-2.1,0.8-4,2.2-5.2,4.1C256.8,9.9,256.7,11.9,257.4,13.7
	L257.4,13.7z M259.5,27c1.7,0.8,3.8,0.8,5.5,0.1c-0.4-1.9-1.6-3.5-3.2-4.5c-2.1-0.9-4.4-1.2-6.6-0.6C256,24.1,257.5,25.9,259.5,27z
	 M292.3,29.1c-2.6,0.3-4.9,1.7-6.4,3.8c-2,3.1-1.8,6.9-1.5,8.8c1.8-0.6,5.3-2,7.3-5.1C293,34.3,293.2,31.6,292.3,29.1L292.3,29.1z
	 M304.8,16.6c0.2-3.7-1.8-6.9-2.9-8.4c-1.3,1.4-3.7,4.3-3.9,8c0,2.6,1.1,5.1,3,6.8C303.1,21.5,304.5,19.2,304.8,16.6L304.8,16.6z
	 M324.5,32.1c-3.6,0.5-6.4,3-7.7,4.4c1.6,1,4.9,2.8,8.6,2.3c2.6-0.4,4.8-2,6.1-4.2C329.6,32.8,327.1,31.9,324.5,32.1L324.5,32.1z
	 M348.1,29.5c-1.7-3.3-5-5.1-6.7-5.8c-0.4,1.8-1,5.6,0.6,8.9c1.3,2.3,3.5,3.9,6,4.4C349.1,34.6,349.1,31.9,348.1,29.5L348.1,29.5z
	 M234.2,38.7c-1.4,0-2.6-1.2-2.6-2.6c0-1.4,1.2-2.6,2.6-2.6c1.4,0,2.6,1.2,2.6,2.6v0C236.7,37.6,235.6,38.7,234.2,38.7
	C234.2,38.8,234.2,38.8,234.2,38.7L234.2,38.7z M220.2,41.3c-1.4,0-2.6-1.2-2.6-2.6c0-1.4,1.2-2.6,2.6-2.6c1.4,0,2.6,1.2,2.6,2.6v0
	C222.8,40.1,221.6,41.3,220.2,41.3C220.2,41.3,220.2,41.3,220.2,41.3L220.2,41.3z M206.3,43.2c-1.4,0-2.6-1.2-2.6-2.6
	c0-1.4,1.2-2.6,2.6-2.6c1.4,0,2.6,1.2,2.6,2.6v0C208.9,42,207.7,43.2,206.3,43.2C206.3,43.2,206.3,43.2,206.3,43.2L206.3,43.2z
	 M192.3,44.4c-1.4,0-2.6-1.2-2.6-2.6c0-1.4,1.2-2.6,2.6-2.6c1.4,0,2.6,1.2,2.6,2.6v0C194.9,43.2,193.8,44.4,192.3,44.4
	C192.3,44.4,192.3,44.4,192.3,44.4L192.3,44.4z M178.4,44.8c-1.4,0-2.6-1.2-2.6-2.6c0-1.4,1.2-2.6,2.6-2.6c1.4,0,2.6,1.2,2.6,2.6v0
	C181,43.7,179.8,44.8,178.4,44.8C178.4,44.8,178.4,44.8,178.4,44.8L178.4,44.8z M114.4,106c0.2,5.8,4.9,7.7,9.9,7.7v1.7
	c-3.3,0-4.5,1.4-5,3c-2.3,8.9-6.9,17.1-13.1,23.8h0c0,0-21,29.1-38.3,19.7c-9.2-5-5.8-16.1-2.7-20.4c1.1-1.4,2.4-2.6,3.9-3.4l0.1,0
	c0.2-0.1,0.3-0.2,0.4-0.2c1.4-0.7,5.6-2.6,8.9-1.7c1.6,0.2,2.7,1.8,2.5,3.4c0,0.2-0.1,0.5-0.2,0.7c-0.6,1.4-2.1,2.3-3.6,2.1
	c-2.1-0.2-3-1.3-5.2-0.9c-4.8,2.6-7,11.5-1.5,15.3c5.4,3.8,14.8,1.4,26.5-10.7c10.4-10.7,15.8-24.2,15.8-32.5V106L114.4,106
	L114.4,106z M143.9,108.2c18,12.5,22.9,22.4,26.3,32.1c1,2.9,2.8,4.6,5.9,4.6v1.8c-4.6,0-7.7,5.3-7.7,11.4h-1.8
	c0-5.3-2.7-11.4-8.1-11.4v-1.8c3.6,0,5-1.6,5-3.5c0-5.1-8.7-21.9-20.8-31.8L143.9,108.2z M263.8,156.6v1.7c-4.1,0-7,4-7,8h-1.7
	c0-3.7-1.2-7.4-3.4-8.7h-42.3c-2.5,1.2-3.8,4.7-3.8,7.4H204c0-2.7-2.2-5.6-5.1-7c-4.7,0.6-13.8-2.3-13.7-12.1
	c0-4,2.5-12.1,12.2-11.8c0,0,5.4-0.1,7.7,2.6c1.1,1,1.1,2.8,0.1,3.9c-0.1,0.1-0.2,0.2-0.4,0.3c-1.1,0.7-2.6,0.7-3.7-0.2
	c-1.4-1.2-1.6-2.5-3.3-3.2c-4.7-0.4-8.7,3.9-8.8,8.8c-0.1,8.5,9.4,8.5,9.7,8.5c3-1.3,5.3-4.1,5.3-7h1.7c0,2.9,1.5,6,3.9,7.2H253
	v-43.5h-38.1c-3.9,0-5.8,4.4-5.8,7.7h-1.8c0-3.8-4.1-7.8-8.8-7.8v-1.6c4.7,0,8.8-3.8,8.8-7.8h1.8c0,3.6,2.3,7.7,5.8,7.7h35.6
	c3.2,0,4.2-3.9,4.2-7.7h1.8c0,3.6,2.6,8.3,6.7,8.3v1.7c-2.5,0-3.9,1.4-3.9,3.1v38.3C259.3,155.3,261.1,156.6,263.8,156.6z
	 M310.6,119.3h-1.7c0-3.7-4.2-7.8-8.9-7.8v-1.6c4.7,0,8.9-3.7,8.9-7.7h1.7c0,3.5,2.3,7.6,5.8,7.6h53.3v1.8h-53.3
	C312.5,111.6,310.6,116,310.6,119.3z M380,165.4c0.2,4-2.9,9.6-7.1,11.5c-1.4,0.6-2.9,0.9-4.4,0.9c0,0-5.3,0.3-7.9-2.2
	c-1.1-1-1.3-2.7-0.3-3.8c0.1-0.1,0.2-0.2,0.4-0.4c1.1-0.8,2.6-0.8,3.7,0c1.5,1.1,1.7,2.4,3.5,3c4.7,0.2,8.7-4.4,8.3-9.2
	c-0.4-6.6-5.2-8.2-8.6-8.4h-6.9c-0.4,0-0.8,0-1.1,0h-52.6c-2.4,1.2-3.7,4.6-3.7,7.2h-1.7c0-3.7-4.2-7.8-8.9-7.8v-1.6
	c4.8,0,8.9-3.7,8.9-7.7h1.7c0,2.8,1.6,6.1,4,7.2h58.4c0,0,0,0,0,0c0.2,0,0.4,0,0.6,0h0.1h0C372.2,154.1,379.6,156,380,165.4z
	 M28.1,183c16.6,1.1,22.7,8,30.3,16.6c3.5,4.1,7.3,8,11.3,11.6c9.7,8.6,17.5,11.7,31,12.2c14,0.5,30.4,1.6,41.6,3.7
	c2.9-4.4,8.2-7.9,14.9-9.8c-3.9-0.4-7.7-1.5-11.2-3.1c-5.3-2.4-10.3-5.6-14.8-9.3c-0.5,2.8-2.3,5.2-4.8,6.5c-1.5,0.7-3.1,1-4.7,1
	c-1.7,0-3.4-0.3-5-0.9c-0.6-0.2-0.9-0.9-0.7-1.5c0.1-0.2,1.7-5.3,6.2-7.4c1.7-0.8,3.7-1,5.6-0.6c-3.1-2.8-6.9-4.9-11-5.9
	c-5.5-1.4-10.4-1.4-14.7,0c1.7,1.6,2.7,3.7,2.8,6c0.2,5-3.6,8.8-3.7,8.9c-0.4,0.4-1.2,0.5-1.6,0.1c-0.2-0.1-4.2-3.7-4.3-8.7
	c0-1,0.1-1.9,0.4-2.9c-1.3,1.1-2.5,2.4-3.4,3.8c-0.3,0.6-1.1,0.8-1.6,0.5c-0.6-0.3-0.8-1.1-0.5-1.6l0,0c3.1-4.6,7.9-7.8,13.3-9
	c-1.3-0.6-2.5-1.5-3.4-2.7c-3-4-2-9.3-2-9.5c0.1-0.6,0.7-1,1.3-1c0.2,0,5.5,0.7,8.5,4.7c1.6,2.3,2,5.2,1.2,7.8
	c2.8,0,5.5,0.4,8.2,1.1c6.1,1.6,9.2,4.2,13.2,7.5c1.7,1.4,3.5,2.9,5.7,4.5c-0.7-1.5-1-3.2-0.7-4.8c0.8-4.9,5.2-7.9,5.4-8
	c0.5-0.3,1.2-0.2,1.6,0.3c0.1,0.2,3.4,4.4,2.6,9.3c-0.5,2.6-2.1,4.9-4.4,6.2c1.8,1.1,3.9,2.2,6.3,3.3c5.2,2.4,12.2,3.6,21,3.3
	c2.9-0.3,5.9-0.5,9.1-0.6c0.5,0,0.7-0.1,0.7-0.1c0.2,0,0.3,0,0.5,0c13.5-0.2,27,0.6,40.4,2.5c14.8,1.9,29.5,4.6,44,8.1
	c1.3,0.3,2.6,0.7,3.8,1.1c0.7,0.2,1.3,0.4,1.9,0.6c-0.1-0.2-0.2-0.5-0.2-0.7c-0.6-2.8,0.4-6,3.1-9.6c2.2-2.8,5.5-4.5,9-4.8
	c3.6-0.4,7.3,0.7,10.1,3c0.5,0.4,0.5,1.2,0.1,1.7c-0.4,0.5-1.2,0.5-1.7,0.1c-2.3-1.9-5.3-2.8-8.3-2.4c-2.9,0.2-5.5,1.6-7.3,3.9
	c-1.5,2-3.3,5-2.7,7.6c0.5,1.6,1.6,2.9,3,3.6c1.7,0.8,3.3,1.7,4.8,2.5c1.8,1,3.6,2,5.5,2.9c-3.1-5.2-1.5-11.4-1.5-11.6
	c0.2-0.6,0.8-1,1.4-0.9c0.3,0.1,6.7,1.3,10,6.5c2.5,4,1.3,8.3,0.8,9.9c4.3,0.9,8.7,1.3,13.2,1.2c4.5-0.1,9.6-1.4,15-3.3
	c-3.4-1.1-6.4-3.2-8.6-6c-0.4-0.5-0.3-1.2,0.2-1.6c0.2-0.2,5.3-4.3,11.4-3.6c5.7,0.7,8.3,6.1,8.4,6.3c0,0.1,0.1,0.2,0.1,0.3
	c1.8-0.8,3.6-1.6,5.4-2.3c2.7-1.2,5.4-2.4,8-3.5c13.5-5.7,40.7-12.5,41-12.5c0.6-0.1,1.3,0.3,1.4,0.9c0.1,0.6-0.2,1.2-0.9,1.4
	c-0.3,0.1-25.7,6.4-39.4,11.9c0.3,0.6,3,5.5,0.5,10.4c-2.8,5.5-9.1,7.4-9.3,7.5c-0.6,0.2-1.2-0.1-1.5-0.7c-0.1-0.3-2.3-6.4,0.4-11.9
	c0.2-0.5,0.5-0.9,0.8-1.3l-0.1,0.1c-11.4,5-23.2,10.2-32.8,10.4c-1.6,0-3.2,0-4.7-0.1c2.4,1.9,3.9,4.7,4.2,7.7
	c0.4,6.1-4.1,10.9-4.3,11.1c-0.4,0.5-1.1,0.5-1.6,0.1c-0.2-0.2-5.3-4.4-5.6-10.5c-0.1-3.3,1.3-6.5,3.8-8.7
	c-9.7-1.1-16.1-4.5-22.2-7.8c-1.2-0.7-2.4-1.3-3.6-1.9c-0.1,0-0.2-0.1-0.3-0.1c-0.4-0.2-0.7-0.4-1-0.6c-2.1-1-4.2-2-6.4-2.7
	c-2.2-0.6-4.5-0.5-6.6,0.3c-3,1.3-5.4,3.7-6.7,6.7c-0.9,2.7-0.7,5.5,0.4,8.1c1-2.7,3-4.9,5.5-6.4c4.2-2.2,8.4,0.2,8.6,0.3
	c0.4,0.2,0.6,0.7,0.6,1.1c0,0.2-0.5,5-4.7,7.2c-1.6,0.8-3.4,1.2-5.2,1.2c-1,0-1.9-0.1-2.9-0.3c1.5,1.8,3.6,3.1,5.8,3.8
	c8.8,2.9,11.9-4.9,12.1-5.3c0.2-0.6,0.9-0.9,1.5-0.7c0.6,0.2,0.9,0.9,0.7,1.5c0,0.1-2.9,7.4-10.6,7.4c-0.3,0-0.7,0-1,0
	c0.3,0.3,0.5,0.7,0.8,1.1c2.5,4.3,0.9,9.4,0.8,9.6c-0.2,0.5-0.6,0.8-1.1,0.8c-0.1,0-0.2,0-0.3,0c-0.2-0.1-5.4-1.3-7.9-5.6
	c-2.3-4.1-0.1-8.4,0-8.6c0,0,0-0.1,0.1-0.1c-5.1-3.6-7.3-10.1-5.4-16c1.5-3.6,4.4-6.6,8-8.1c0.1,0,0.2-0.1,0.3-0.1
	c-19-4.5-54.1-10.7-81.9-9.6c-1.4,0.1-3.9,0.4-6.6,0.5c-0.7,0-1.3,0.1-2,0.1c-1.8,0.2-3.6,0.4-5.3,0.7c-8,1.3-14.6,4.6-18,9.2
	c3.9,0.9,6.9,1.9,8.7,3.1c2.5,1.5,4,4.2,4.2,7.1c0.1,2.4-1.1,4.7-3,6.2c-1.4,1.2-3.2,1.8-5,1.9c-0.7,0-1.4-0.1-2-0.3
	c-3.4-1-6-4.1-7-6.8c-1.2-3.1-1.1-6.5,0.3-9.5c-9.1-1.6-22.8-2.8-40.5-3.5c-13.9-0.5-22.4-3.9-32.4-12.8c-4.1-3.7-7.9-7.6-11.5-11.8
	c-7.6-8.6-13.1-14.8-28.7-15.8c-10.9-0.7-16.9,2.6-20,5.5c-3,2.8-4.8,6.8-4.7,11c0,4.3,2.8,10.8,7.8,14.3c3.8,2.7,8.3,3.3,13.1,1.6
	c4.1-1.4,6.5-3.8,7-7c0.4-2.8-0.7-5.7-2.8-7.5c-5.9-4.4-11,1.5-11.3,1.8c-0.4,0.5-1.2,0.6-1.7,0.1c-0.5-0.4-0.6-1.2-0.1-1.7
	c2.3-2.7,8.3-6.7,14.5-2.1c2.9,2.4,4.3,6.1,3.8,9.8c-0.4,2.3-2,6.6-8.6,8.8c-5.6,1.9-10.9,1.2-15.3-1.9c-5.7-4-8.7-11.4-8.8-16.3
	c-0.1-4.8,1.9-9.5,5.5-12.7C9.7,185.9,16.3,182.2,28.1,183z M99.9,197.5c-1.4,1.3-2.3,3.1-2.3,5c0.2,2.3,1.1,4.4,2.7,6.1
	c1.4-1.8,2.2-4,2.3-6.2C102.4,200.4,101.4,198.7,99.9,197.5L99.9,197.5z M106,186.4c-1.4-1.8-3.4-3-5.6-3.5
	c-0.2,2.3,0.4,4.5,1.7,6.4c1.2,1.5,3,2.4,4.9,2.5C107.4,190,107,188,106,186.4L106,186.4z M123.1,204.9c-2,1.1-3.6,2.8-4.5,4.9
	c2.2,0.6,4.5,0.5,6.6-0.4c1.7-0.9,2.9-2.5,3.4-4.4C126.9,204.2,124.9,204.2,123.1,204.9z M142.7,202.2c0.2-2.3-0.3-4.5-1.5-6.5
	c-1.7,1.5-2.9,3.5-3.4,5.7c-0.2,1.9,0.4,3.8,1.7,5.3C141.1,205.7,142.3,204.1,142.7,202.2z M341.3,243.1c1.7-0.7,5.1-2.5,6.7-5.8
	c1.1-2.4,1-5.1-0.1-7.5c-2.5,0.5-4.7,2.1-6,4.4C340.3,237.5,340.9,241.3,341.3,243.1z M331.5,232.1c-1.3-2.2-3.6-3.8-6.1-4.2
	c-3.7-0.5-7,1.3-8.6,2.3c1.3,1.4,4.1,4,7.7,4.4C327.1,234.9,329.6,233.9,331.5,232.1z M298,250.6c0.2,3.7,2.6,6.6,3.9,8
	c1.1-1.5,3.1-4.7,2.9-8.4c-0.3-2.6-1.7-4.9-3.8-6.4C299.1,245.5,298,248,298,250.6z M285.9,233.9c1.5,2.1,3.8,3.5,6.4,3.8
	c0.9-2.5,0.6-5.2-0.6-7.4c-2-3.1-5.5-4.6-7.3-5.1C284.1,227,283.9,230.7,285.9,233.9L285.9,233.9z M261.8,244.1
	c1.7-1,2.9-2.6,3.3-4.5c-1.8-0.7-3.8-0.7-5.5,0.1c-2,1.1-3.5,2.9-4.3,5C257.4,245.3,259.7,245.1,261.8,244.1L261.8,244.1z
	 M257.7,258.6c1.2,1.9,3,3.4,5.2,4.1c0.4-2.2,0.1-4.5-0.9-6.6c-1-1.6-2.7-2.7-4.6-3.1C256.7,254.9,256.8,256.9,257.7,258.6
	L257.7,258.6z M143,238c0.9,2.5,2.9,4.4,5.4,5.3c1.7,0.5,3.6,0,4.9-1.2c1.3-1,2.1-2.5,2.1-4.2c-0.2-2.1-1.4-4.1-3.2-5.2
	c-1.6-1.1-4.5-2.1-8.7-2.9C142.2,232.3,142,235.3,143,238L143,238z M178.4,221.9c1.4,0,2.6,1.2,2.6,2.6c0,1.4-1.2,2.6-2.6,2.6
	c-1.4,0-2.6-1.2-2.6-2.6c0,0,0,0,0,0C175.8,223.1,177,221.9,178.4,221.9C178.4,221.9,178.4,221.9,178.4,221.9L178.4,221.9z
	 M192.3,222.4c1.4,0,2.6,1.2,2.6,2.6c0,1.4-1.2,2.6-2.6,2.6c-1.4,0-2.6-1.2-2.6-2.6l0,0C189.7,223.5,190.9,222.4,192.3,222.4
	C192.3,222.4,192.3,222.4,192.3,222.4L192.3,222.4z M206.3,223.6c1.4,0,2.6,1.2,2.6,2.6c0,1.4-1.2,2.6-2.6,2.6
	c-1.4,0-2.6-1.2-2.6-2.6c0,0,0,0,0,0C203.7,224.8,204.8,223.6,206.3,223.6C206.3,223.6,206.3,223.6,206.3,223.6L206.3,223.6z
	 M220.2,225.5c1.4,0,2.6,1.2,2.6,2.6c0,1.4-1.2,2.6-2.6,2.6c-1.4,0-2.6-1.2-2.6-2.6c0,0,0,0,0,0
	C217.6,226.7,218.8,225.5,220.2,225.5C220.2,225.5,220.2,225.5,220.2,225.5L220.2,225.5z M234.1,228c1.4,0,2.6,1.2,2.6,2.6
	c0,1.4-1.2,2.6-2.6,2.6c-1.4,0-2.6-1.2-2.6-2.6c0,0,0,0,0,0C231.6,229.2,232.7,228,234.1,228C234.1,228,234.1,228,234.1,228
	L234.1,228z M367,227.7c6.3-4.5,13.8-1.6,14.1-1.5c0.4,0.2,0.7,0.6,0.7,1.1c0,0.3,0.3,8.3-6,12.8c-3.5,2.3-7.5,3.5-11.7,3.4
	c-1.4,0-2.9-0.1-4.3-0.4c-0.6-0.1-1-0.7-0.9-1.3C358.9,241.4,360.2,232.5,367,227.7L367,227.7z M374.4,238.2c4.2-3,4.9-8,5-10
	c-1.9-0.5-6.9-1.5-11.1,1.4c-4.6,3.3-6.4,8.9-6.9,11.3C364,241.2,369.8,241.4,374.4,238.2L374.4,238.2z M392.3,231.4
	c0.5,0,1,0.3,1.4,0.7c0.4,0.5,0.3,1.4-0.1,2.8c0.4,0.6,0.8,1,1.3,1.4c0.4,0.3,0.9,0.5,1.3,0.7c-0.1-0.5-0.2-1-0.3-1.4
	c-0.2-0.9-0.4-1.9-0.4-2.8c0-1.4,0.3-2.7,0.9-4c0.3-0.5,0.5-1.1,0.6-1.7c0.6-2.1,2.2-3.8,4.2-4.6c2.3-0.8,3.8-0.3,4.3,1.4
	c0.2,0.4,0.1,0.9-0.2,1.3c-0.2,0.3-0.3,0.7-0.3,1c-0.1,1.1,1,3.5,2.6,5.8c1,1.4,2.2,2.9,2.9,3.7c0.5-0.8,1.7-1,3.7-1.2l0.3,0
	c1-0.1,2-0.5,2.8-1.2c0.5-0.3,1-0.7,1.5-1c0.3-0.2,0.6-0.3,0.9-0.4c0.6-0.9,0.9-1.4,1.4-1.6c-0.4-0.7-0.9-1.8-1.5-2.8
	c-0.7-1.4-1.7-2.5-3-3.4c-0.2-0.1-0.5-0.1-0.7-0.1c-0.4,0.1-0.8,0-1.1-0.3c-1-1-0.9-2.2,0.3-3.6c1.2-1.2,2.9-1.8,4.5-1.5
	c0.4,0.1,0.8,0.1,1.2,0.1c1-0.1,2.1,0.1,3,0.6c0.6,0.3,1.3,0.7,1.8,1.1c0.1,0.1,0.3,0.2,0.5,0.4c0-0.2,0-0.4-0.1-0.6
	c-0.1-0.4-0.2-0.8-0.5-1.2c-1.6-0.2-1.9-0.7-2-0.9c-0.2-0.4-0.2-0.9-0.1-1.3c0.3-0.7,0.9-1.3,1.7-1.6c1.8-0.7,3.8,0.4,5.1,1.5
	c1.6,1.4,2.7,3.3,3,5.4c0.1,0.5,0.1,1,0.1,1.4c0.6-0.2,1.2-0.4,1.6-0.8l0,0c0-0.1,0-0.2-0.1-0.2c0,0,0-0.1-0.1-0.1
	c-0.3-0.3-0.4-0.7-0.2-1.1c0.3-0.6,1-1,1.7-1.2c1-0.2,2,0.2,2.7,1c1.4,1.4,1.8,4.4,1.7,5.6c-0.2,2.2-1.2,4.3-2.8,5.7
	c2,1.5,2.6,3.5,3.1,5.7c0.7,2.8,0.3,5.1-1,5.9c-0.4,0.3-0.9,0.4-1.4,0.4c-0.3,0-0.6-0.1-0.9-0.3c-0.4-0.3-0.6-0.7-0.6-1.2
	c0-0.2-0.1-0.4-0.3-0.6c-0.5-0.6-1.1-1.1-1.9-1.3c-0.2-0.1-0.4-0.2-0.6-0.2c0.4,1.8,0.2,3.7-0.7,5.4c-1,1.8-2.9,2.9-4.9,2.9
	c-0.1,0-0.2,0-0.2,0c-1.3,0-3.2-0.5-3.7-1.2c-0.2-0.3-0.2-0.6-0.1-0.9c0.1-0.3,0.4-0.5,0.6-0.6c0.6-0.3,1-0.9,1.2-1.5
	c0.2-1.4,0.2-2.9-0.1-4.3c-0.1-0.1-0.1-0.2-0.2-0.2c-0.3-0.4-0.6-0.8-1-1.1c-0.7,0.5-1.6,0.8-2.5,0.8c-1.1,2.6-2.5,4.5-4,5.2
	c0,0,0,0,0,0c0.3,0.7,0.6,1.4,0.9,2.1c0.1,0.1,0.2,0.3,0.2,0.4c1.6,1.2,3.5,2.1,5.5,2.6c1,0.1,1.9-0.1,2.7-0.7
	c0.3-0.2,0.6-0.3,1-0.4c0.3,0,0.6,0.2,0.8,0.5c0.5,0.8,0.2,3.5-0.7,5.2c-1,2-3.2,4.3-6.1,4.4c-0.2,0-0.4,0-0.5,0
	c-2.5,0-4.9-0.8-6.8-2.4c-0.1,0.5-0.1,0.9-0.1,1.4c-0.1,1.1,0.2,2.2,0.6,3.2c0.1,0.4,0.4,0.7,0.7,0.8c0.5,0.2,0.9,0.6,1,1.2
	c0,1-0.5,2-1.3,2.5c-0.5,0.3-1.1,0.5-1.7,0.5c-2.2-0.2-4.2-1.1-5.9-2.5c-2.5-1.7-4.4-4.2-5.2-7.2c-1.6,0.8-3.3,1.2-5.1,1.2
	c-1.3,0-2.6-0.2-3.9-0.7c-1.7-0.6-5.1-2.7-5.9-5c-0.5-1.2-0.5-2.5,0.2-3.6c0.5-0.7,1.3-1.2,2.1-1.3c0.5,0,0.9,0.3,1,0.7
	c0,0.1,0.1,0.2,0.1,0.2c0.1,0.1,0.2,0.3,0.4,0.4c0.1,0,0.2-0.1,0.2-0.1c0.9-0.4,1.7-1.1,2.2-2c-0.7-0.3-1.3-0.7-2-1.1
	c-2.4-1.5-4.2-3.8-5-6.5c-0.7-2.1-1-5.2,0.8-6.9C390.3,231.8,391.3,231.4,392.3,231.4L392.3,231.4z M392.1,233c0.1,0,0.2,0,0.2,0
	c0,0,0,0,0,0C392.3,233,392.2,233,392.1,233L392.1,233z M434.2,239.1c0.6,0.1,1.2,0.3,1.8,0.5c1,0.4,1.8,1,2.5,1.7
	c0.4,0.4,0.6,0.9,0.7,1.5c0.2,0,0.3-0.1,0.5-0.2c0.4-0.2,0.8-1.7,0.2-4.2c-0.6-2.5-1.3-4.1-3.2-5.2c-0.1,0-0.2-0.1-0.3-0.2h0
	c-1-0.4-2.1-0.6-3.1-0.4c-0.4,0.1-0.8-0.3-0.9-0.7c0-0.4,0.2-0.7,0.5-0.9c1.3-0.3,2.7-0.1,4,0.4c1.6-1.2,2.5-3,2.6-5
	c0.1-1.2-0.4-3.5-1.2-4.3c-0.1-0.1-0.2-0.2-0.3-0.2c-0.2,0.7-0.6,1.3-1.2,1.7l0,0c-0.1,0.1-0.2,0.2-0.4,0.3c-0.8,0.6-1.7,1-2.6,1.2
	c0,1.3-0.4,2.5-1.2,3.6c-0.3,0.3-0.8,0.3-1.1,0c-0.3-0.3-0.3-0.7-0.1-1c0,0,1.2-1.6,0.7-5.4c-0.2-1.7-1.1-3.3-2.5-4.4
	c-0.9-0.9-2.4-1.6-3.4-1.2l0,0c0.1,0,0.1,0.1,0.2,0.1c0.8,0.8,1.4,1.9,1.6,3c0.1,0.6,0.1,1.3,0,1.9c1.4,0.8,2.3,2.2,2.4,3.8
	c0.1,1-0.1,1.9-0.5,2.8c0.1,0,0.3,0,0.4,0.1c0.5,0.2,0.7,0.7,0.5,1.2c-0.1,0.3-0.5,0.5-0.8,0.5c0,0-0.1,0-0.1,0
	c-0.5,0.8-1.2,1.4-2,1.7l-0.1,0c0.5,0.1,1.1,0,1.6-0.1c0.7-0.1,1.4-0.6,1.8-1.2c0-0.1,0.1-0.1,0.2-0.2c0,0,0,0,0,0
	c-0.2-0.5,0.1-1,0.6-1.1s1,0.1,1.1,0.6c0.2,0.5-0.1,1-0.6,1.1c-0.1,0-0.2,0-0.3,0h0c-0.1,0-0.2,0-0.3-0.1c0,0,0,0,0,0l-0.1,0.1
	c-0.5,0.8-1.3,1.3-2.2,1.5c-0.4,0.1-0.8,0.1-1.2,0.1c-0.1,0-0.2,0-0.3,0c0.3,0.2,0.5,0.4,0.8,0.6c0.7,0.1,1.5,0.1,2.2-0.1
	c0.1,0,0.2,0,0.2,0c0,0,0-0.1,0-0.1c0.2-0.5,0.7-0.7,1.2-0.5c0.5,0.2,0.7,0.7,0.5,1.2c0,0,0,0,0,0c-0.1,0.3-0.5,0.5-0.8,0.5
	c-0.1,0-0.2,0-0.4-0.1l0,0c-0.2-0.1-0.3-0.2-0.4-0.4c0,0-0.1,0-0.1,0.1c-0.4,0.1-0.8,0.2-1.2,0.2c1.4,1,2.6,2.3,3.5,3.7
	C433.9,238.4,434,238.8,434.2,239.1L434.2,239.1z M429.1,229.5c-0.4,0.4-0.9,0.7-1.4,0.9c-0.2,0.1-0.4,0.2-0.6,0.4
	c0,0.2-0.1,0.4-0.3,0.6c0,0.1-0.1,0.1-0.2,0.2c0.3-0.1,0.7-0.2,1-0.3c0.7-0.3,1.2-0.8,1.6-1.4C429.2,229.7,429.1,229.6,429.1,229.5
	L429.1,229.5z M429.7,229.5c0.1,0.2,0.2,0.2,0.4,0.2c0.1,0,0.1-0.1,0.2-0.2c0.1-0.2,0-0.3-0.1-0.4c-0.2-0.1-0.3,0-0.4,0.1
	C429.7,229.3,429.7,229.4,429.7,229.5L429.7,229.5z M432,230.5c0.1,0.1,0.3,0.1,0.4,0c0.1-0.1,0.1-0.3,0-0.4c-0.1-0.1-0.3-0.1-0.4,0
	C431.9,230.2,431.9,230.4,432,230.5C432,230.5,432,230.5,432,230.5L432,230.5z M432,233.7c0.1,0.2,0.2,0.2,0.4,0.2
	c0.2-0.1,0.2-0.2,0.2-0.4c-0.1-0.2-0.2-0.2-0.4-0.2c-0.1,0-0.1,0.1-0.2,0.2C431.9,233.5,431.9,233.6,432,233.7L432,233.7z
	 M426.5,233.8c0.3,1.4,0.3,2.8,0.1,4.2c0.5,0.5,1,1,1.4,1.5c1.4,1.8,1.9,3.8,1.7,4.3l-0.7-0.3l-0.2,0c0,0.6-0.1,1.3-0.2,1.9
	c-0.2,0.8-0.6,1.5-1.2,2c0.6,0.2,1.2,0.3,1.8,0.2c1.5,0,2.8-0.8,3.6-2c0.7-1.5,1.3-3.7-0.4-6.8c-1.2-2-3.9-4-5.8-5.2
	C426.5,233.7,426.5,233.7,426.5,233.8L426.5,233.8z M423.2,232.1c1.8,0.8,1.3,4,0.6,6.4c0.4-0.1,0.7-0.2,1-0.5
	c0.3-0.2,0.5-1.8,0.1-4c-0.1-0.6-0.3-1.2-0.6-1.7c0,0,0,0,0,0s0,0-0.1-0.1c-0.2-0.3-0.2-0.7,0-1c0.1-0.1,0.2-0.2,0.4-0.2l0,0
	c0.3-0.1,0.6-0.3,0.9-0.5c0-0.1,0.1-0.1,0.1-0.2c0.2-0.6,0.8-1.1,1.4-1.3c1.9-1,2-1.9,1.9-3.2c-0.1-1.5-1.3-2.3-2.4-3.1l-0.4-0.2
	c-0.4-0.3-0.7-0.5-1-0.7c-0.5-0.4-1-0.7-1.5-0.9c-0.7-0.3-1.5-0.5-2.3-0.4c-0.5,0-1.1,0-1.6-0.1c-1.1-0.1-2.2,0.3-3,1.1
	c-0.7,0.8-0.7,1.1-0.5,1.3c0.4,0,0.9,0,1.3,0.2c1.7,0.6,3.5,3.5,3.9,4c0.7,1.2,1.4,2.5,2,3.8c0.2,0.4,0,0.8-0.4,1l-0.4,0.2
	C422.7,231.9,423,232,423.2,232.1L423.2,232.1z M421.8,239.4c1.3-3.1,1.3-5.7,0.8-5.9c-0.9-0.3-1.9-0.3-2.7,0.2
	c-0.5,0.3-0.9,0.6-1.4,0.9c-1,0.8-2.2,1.3-3.5,1.5l-0.3,0c-1.4,0.2-2.5,0.3-2.6,0.6c0,0.1-0.1,0.3-0.2,0.4l-0.6,0.5
	c-0.3,0.3-0.8,0.2-1.1-0.1c-1.3-1.4-2.5-3-3.6-4.5c-1.5-2.1-3-5.1-2.9-6.9c0-0.6,0.2-1.2,0.5-1.7c0,0,0,0,0-0.1
	c-0.1-0.4-0.4-0.9-2.3-0.3c-1.5,0.6-2.7,1.9-3.2,3.4c-0.2,0.7-0.4,1.4-0.7,2c-0.5,1-0.8,2.2-0.8,3.3c0,0.8,0.1,1.7,0.3,2.5
	c0.1,0.4,0.2,0.9,0.3,1.6l0.1,0.6c0.3,1.9,0.7,3.9,2.7,4.9c1.6,0.8,3,1.3,5.4-0.7c1.1-0.9,1.5-1.1,2.2-1c0.1,0,0.2,0,0.4,0
	c0.5-0.2,1-0.5,1.3-0.9c0.3-0.3,0.8-0.4,1.1-0.1c0.1,0.1,0.2,0.2,0.2,0.3c0.5,0.8,1.1,1.4,1.9,1.9c2.6,1.7,4.7,2.4,5.3,2.1
	C419.6,243.4,420.8,241.8,421.8,239.4L421.8,239.4z M404.6,245c-0.3,0-0.5,0.2-0.5,0.5s0.2,0.5,0.5,0.5c0.3,0,0.5-0.2,0.5-0.5
	c0,0,0,0,0,0C405.1,245.2,404.9,245,404.6,245L404.6,245z M405.5,244.9C405.6,244.9,405.6,244.9,405.5,244.9
	c1.1-0.2,2.1-0.6,2.9-1.3c0.5-0.5,1-1.1,1.4-1.7c-0.3,0.2-0.6,0.3-1,0.4c-0.3,0.1-0.6,0.1-0.8,0c0,0-0.1,0-0.1,0
	c-0.3,0.2-0.6,0.4-0.9,0.6c-0.8,0.7-1.6,1.2-2.6,1.5c0.1,0,0.1,0,0.2,0C405,244.4,405.3,244.6,405.5,244.9L405.5,244.9z
	 M423.5,258.1c2.2-0.1,3.9-1.9,4.7-3.5c0.4-1,0.7-2,0.8-3c-1,0.6-2.3,0.9-3.5,0.6c-0.8-0.2-1.6-0.5-2.4-0.8l-0.2,0.5l0,0l0,0.8h0
	c-0.5,0-2.5-1.3-3.9-3.8c0,0,0,0,0,0c-0.1-0.1-0.2-0.3-0.2-0.4c-0.5-0.9-0.8-1.8-1.2-2.7c-1.9-0.4-3.7-1.2-5.3-2.4
	c-0.2-0.2-0.5-0.3-0.7-0.5c0.4,3,1.3,8.1,3.4,10.9C418,257.7,421.1,258.1,423.5,258.1L423.5,258.1z M390.3,238.9
	c0.7,2.4,2.2,4.4,4.3,5.7c4.7,2.9,7.6,2.3,7.7,2.3c0.4-0.1,0.9,0.1,1,0.5c0.1,0.4-0.1,0.9-0.5,1c-0.1,0-0.1,0-0.2,0
	c-0.4,0.1-0.7,0.1-1.1,0.1c-1.5,0-2.9-0.3-4.3-0.9c-0.7,1.2-1.7,2.1-2.9,2.7c-0.7,0.4-1.4,0.7-2.2,0.7c-0.2,0-0.4,0-0.6-0.1
	c-0.3-0.1-0.5-0.2-0.8-0.5c-0.1,0.5,0,1.1,0.2,1.6c0.6,1.6,3.4,3.5,5,4.1c2.7,1,5.6,0.7,8.1-0.7c-0.5-2.5,0.4-5.1,2.4-6.7
	c0.4-0.2,0.9-0.1,1.1,0.3c0.2,0.3,0.1,0.7-0.1,1c-1.5,1.3-2.2,3.3-1.7,5.3c0.5,3.1,2.3,5.9,5,7.6c2.8,2.1,5.1,2.4,5.7,2
	c0.3-0.2,0.6-0.5,0.7-0.9l0,0c-0.7-0.3-1.3-0.9-1.6-1.6c-0.6-1.2-0.9-2.6-0.8-3.9c0-0.9,0.1-1.8,0.4-2.6c-0.4-0.4-0.8-0.9-1.1-1.4
	c-1.4-2.1-2.4-4.4-2.9-6.9c-0.3,0.7-0.6,1.3-1.1,1.9c0.1,0.2,0.2,0.4,0.2,0.6c0,0.6-0.5,1.1-1.1,1.1c-0.6,0-1.1-0.5-1.1-1.1
	c0-0.6,0.5-1.1,1.1-1.1c0.1,0,0.2,0,0.3,0c0.8-1,1.2-2.1,1.4-3.3c-0.1-0.6-0.2-1.1-0.3-1.7c-0.3,0.9-0.7,1.8-1.2,2.6
	c-0.7,1-1.8,1.7-3,1.9c-0.1,0-0.1,0-0.1,0c0,0-0.1,0-0.1,0c-0.1,0.6-0.6,1.1-1.2,1c-0.6-0.1-1.1-0.6-1-1.2c0.1-0.6,0.6-1.1,1.2-1
	c0.3,0,0.6,0.2,0.8,0.5c0.1,0,0.2-0.1,0.3-0.1c1-0.2,1.9-0.8,2.5-1.6c0.5-0.8,1-1.8,1.2-2.7c-0.2,0.2-0.3,0.4-0.5,0.6
	c-0.9,0.8-2.1,1.4-3.3,1.5c-0.1,0.6-0.7,1-1.3,0.9s-1-0.7-0.9-1.3c0.1-0.4,0.3-0.7,0.6-0.8c-1.4,0.3-3,0.1-4.2-0.7
	c-2.3-1.2-3-3.3-3.3-5.1c-0.9-0.2-1.8-0.5-2.5-1.1c-1.2-0.9-2.1-2.2-2.7-3.6c-0.1-0.4,0-0.8,0.3-1c-0.3,0.2-0.6,0.4-0.9,0.6
	C389.4,235,389.9,237.6,390.3,238.9L390.3,238.9z M409.4,250.3c0-0.3-0.2-0.5-0.5-0.5c-0.3,0-0.5,0.2-0.5,0.5s0.2,0.5,0.5,0.5
	c0,0,0,0,0,0C409.1,250.8,409.4,250.6,409.4,250.3C409.4,250.3,409.4,250.3,409.4,250.3L409.4,250.3z M405.1,248.6
	c0-0.3-0.2-0.5-0.5-0.5c-0.3,0-0.5,0.2-0.5,0.5s0.2,0.5,0.5,0.5c0,0,0,0,0,0C404.9,249.2,405.1,248.9,405.1,248.6
	C405.1,248.6,405.1,248.6,405.1,248.6L405.1,248.6z M448.9,226.2c0.3-0.1,7.8-3.1,14.1,1.5c6.8,4.8,8.1,13.7,8.1,14.1
	c0.1,0.6-0.3,1.2-0.9,1.3c-1.4,0.3-2.9,0.4-4.3,0.4c-4.1,0.1-8.2-1.1-11.7-3.4c-6.3-4.5-6-12.5-6-12.8
	C448.2,226.8,448.5,226.4,448.9,226.2z M455.6,238.2c4.6,3.3,10.5,3.1,13,2.8c-0.6-2.4-2.3-8-6.9-11.3c-4.2-3-9.2-2-11.1-1.4
	C450.7,230.1,451.4,235.2,455.6,238.2L455.6,238.2z M416.1,96.5c0.5,4.7,3.2,7.6,7.9,7.6h37.9c2.8,0,5.9-3.2,5.9-8.5h1.8
	c-0.2,4.8,3.5,8.7,8.3,8.9c0,0,0.1,0,0.1,0v1.8c-3.2,0-5.5,1.1-6,4.6c-3.7,21.7-15.8,40.1-33.7,50.6c-10.2,6.5-28.6,15.3-37.3,4.5
	c-5.6-7-2-16.6,5.4-18.8c2.3-0.7,7.1-1.6,10,0.1c1.5,0.7,2.2,2.4,1.5,3.9c-0.1,0.2-0.2,0.4-0.4,0.6c-1,1.2-2.6,1.6-4.1,1.1
	c-2-0.8-2.6-2.1-4.8-2.2c-5.3,1.2-7.6,7.5-3.7,12.9c4.4,6,15.6,1.9,20.7-0.3c8.9-3.8,10.8-6,14-8.2c14.9-10.4,24.5-31,26-49.2H424
	c-2.2,0-3.5,1-3.5,2.3v31.2h-1.8c-0.5-4.2-3.6-8.1-7.8-8.1v-1.8c2.2,0,3.5-1,3.5-2.3V96.5H416.1L416.1,96.5z M518.3,102.9v-1.7
	c3.8,0,6.5-4.4,6.5-8.6h1.7c0,4,2.5,8.6,6.5,8.6v1.7c-3.1,0-4.3,1.2-4.3,3.2v41.1h-1.8c-0.2-4.2-3.7-7.5-7.9-7.6v-1.8
	c2.9,0,3.7-1.3,3.7-2.8v-29C522.7,104.1,521.3,102.9,518.3,102.9z M561.3,89c0.4,6.1,3.4,8.1,8,8.1v1.8c-2.2,0-3.5,0.9-3.5,2.2v36.7
	c0,5.4-0.5,10.8-1.6,16.1c-0.9,4.2-2.6,8.1-5,11.6c-3.2,5.5-7.7,7.6-14.7,7.6c-10,0-13.2-5.6-13.8-9.5c-0.2-1-0.3-2.1-0.3-3.2
	c0.1-2.4,0.9-4.7,2.3-6.6c0.9-1.4,2.8-1.8,4.2-0.8c0.2,0.1,0.3,0.2,0.5,0.4c1,1.2,1.2,2.8,0.5,4.2c-0.7,0.9-1.4,1.8-2.2,2.7
	c-1.2,3.5,3,7.9,9.1,7.9c5.3,0.2,10.2-3,12.2-8c2.2-5,2.6-14.5,2.6-22V89H561.3L561.3,89z M622.3,102.9v-1.7c3.8,0,6.5-4.4,6.5-8.6
	h1.7c0,4,2.5,8.6,6.5,8.6v1.7c-3.1,0-4.3,1.2-4.3,3.2v41.1h-1.8c-0.2-4.2-3.7-7.5-7.9-7.6v-1.8c2.9,0,3.7-1.3,3.7-2.8v-29
	C626.7,104.1,625.3,102.9,622.3,102.9z M665.3,89c0.4,6.1,3.4,8.1,8,8.1v1.8c-2.2,0-3.5,0.9-3.5,2.2v36.7c0,5.4-0.5,10.8-1.6,16.1
	c-0.9,4.2-2.6,8.1-5,11.6c-3.2,5.5-7.7,7.6-14.7,7.6c-10,0-13.2-5.6-13.8-9.5c-0.2-1-0.3-2.1-0.3-3.2c0.1-2.4,0.9-4.7,2.3-6.6
	c0.9-1.4,2.8-1.8,4.2-0.8c0.2,0.1,0.3,0.2,0.5,0.4c1,1.2,1.2,2.8,0.5,4.2c-0.7,0.9-1.4,1.8-2.2,2.7c-1.2,3.5,3,7.9,9.1,7.9
	c5.3,0.2,10.2-3,12.2-8c2.2-5,2.6-14.5,2.6-22V89H665.3L665.3,89z M760.3,104.6c0.1,4.3,3.7,6,7.7,6v1.4c-2.6,0-3.2,0.8-3.9,2
	c-3.6,6.3-8.1,12-13.3,17.1c1,2.2,3.3,3.3,6,3.3v1.5c-1.6,0-2.5,0.8-2.5,1.8v12.5l0,0c0.1,2.7,0.1,8.4,0.1,11
	c0,2.1,1.3,14.5-11.1,14.5c-12.1,0-14.8-10.5-11.2-17.6l0,0c0.4-1,0.9-1.8,1.6-2.6c1.1-1.3,3-1.5,4.3-0.5c0.1,0.1,0.2,0.2,0.4,0.3
	c1,1.2,1.1,2.8,0.3,4.1c-1.3,1.9-2.8,2.1-3.2,4.8c0,3.5,2.6,6.3,8.1,6.3c4,0,5.6-3.4,5.6-6.2v-1.4c0-10.4,0-13.8,0-13.8v-16.3
	c-9.6,8.9-20.4,16.3-32.1,22.1l-0.6-1.2c18.9-11,42.6-35.9,42.6-43.7v-5.4L760.3,104.6L760.3,104.6z M440.9,216.1
	c-0.6-0.1-1-0.8-0.9-1.4c0.1-0.6,0.8-1,1.4-0.9c0,0,0,0,0,0c0.3,0.1,27.5,6.9,41,12.5c2.6,1.1,5.4,2.3,8,3.5
	c1.8,0.8,3.6,1.6,5.4,2.3c0-0.1,0-0.2,0.1-0.3c0.1-0.2,2.7-5.5,8.4-6.3c6.1-0.8,11.2,3.4,11.4,3.6c0.5,0.4,0.6,1.1,0.2,1.6
	c-2.2,2.9-5.2,5-8.6,6c5.4,1.9,10.5,3.2,15,3.3c4.4,0.2,8.8-0.2,13.2-1.2c-0.6-1.6-1.7-5.9,0.8-9.9c3.3-5.2,9.7-6.5,10-6.5
	c0.6-0.1,1.2,0.3,1.4,0.9c0.1,0.3,1.7,6.5-1.5,11.6c1.9-0.9,3.7-1.9,5.5-2.9c1.6-0.9,3.2-1.7,4.8-2.5c1.5-0.8,2.6-2.1,3-3.6
	c0.6-2.6-1.1-5.5-2.7-7.6c-1.8-2.3-4.5-3.7-7.3-3.9c-3-0.4-5.9,0.5-8.3,2.4c-0.5,0.4-1.3,0.4-1.7-0.1c-0.4-0.5-0.4-1.2,0.1-1.7
	c2.8-2.3,6.4-3.4,10.1-3c3.5,0.3,6.8,2,9,4.8c2.7,3.5,3.7,6.8,3.1,9.6c-0.1,0.2-0.1,0.5-0.2,0.7c0.6-0.2,1.3-0.5,1.9-0.6
	c1.2-0.4,2.5-0.8,3.8-1.1c14.5-3.5,29.2-6.2,44-8.1c13.4-1.9,26.9-2.7,40.4-2.5c0.2,0,0.3-0.1,0.5,0c0,0,0.3,0,0.7,0.1
	c3.2,0.1,6.2,0.3,9.1,0.6c8.8,0.2,15.8-0.9,21-3.3c2.4-1.1,4.5-2.2,6.3-3.3c-2.3-1.3-3.9-3.6-4.4-6.2c-0.8-4.9,2.5-9.2,2.6-9.3
	c0.4-0.5,1.1-0.6,1.6-0.3c0.2,0.1,4.6,3.1,5.4,8c0.3,1.6,0,3.3-0.7,4.8c2.2-1.6,4-3.1,5.7-4.5c3.9-3.3,7-5.9,13.2-7.5
	c2.7-0.7,5.4-1.1,8.2-1.1c-0.8-2.7-0.3-5.5,1.2-7.8c3-4,8.2-4.7,8.5-4.7c0.6-0.1,1.2,0.4,1.3,1c0,0.2,1,5.5-2,9.5
	c-0.9,1.2-2,2.1-3.4,2.7c5.5,1.1,10.2,4.3,13.3,9c0.3,0.6,0.1,1.3-0.5,1.6s-1.3,0.1-1.6-0.5l0,0c-0.9-1.5-2.1-2.8-3.5-3.9
	c0.3,0.9,0.5,1.9,0.4,2.9c-0.2,5-4.2,8.5-4.3,8.7c-0.5,0.4-1.2,0.4-1.6-0.1c-0.2-0.2-3.9-3.9-3.7-8.9c0.1-2.3,1.2-4.5,2.9-6
	c-3.7-1.2-8.5-1.5-14.7,0.1c-4.1,1.1-7.8,3.1-11,5.9c1.9-0.5,3.8-0.3,5.6,0.6c4.5,2.1,6.1,7.2,6.2,7.4c0.2,0.6-0.1,1.2-0.7,1.5
	c-1.6,0.6-3.3,0.9-5,0.9c-1.6,0-3.2-0.3-4.7-1c-2.5-1.3-4.3-3.7-4.8-6.5c-4.5,3.7-9.5,6.8-14.8,9.3c-3.6,1.6-7.4,2.6-11.2,3.1
	c6.7,2,12,5.4,14.9,9.8c11.1-2.1,27.6-3.2,41.6-3.7c13.4-0.5,21.2-3.6,31-12.2c4-3.6,7.8-7.5,11.3-11.6c7.7-8.7,13.7-15.5,30.3-16.6
	c11.8-0.8,18.4,2.9,21.8,6.1c3.5,3.3,5.5,7.9,5.5,12.7c0,4.9-3.1,12.2-8.8,16.3c-4.4,3.2-9.7,3.8-15.3,1.9c-6.6-2.2-8.2-6.5-8.6-8.8
	c-0.6-3.7,0.9-7.4,3.8-9.8c6.2-4.6,12.2-0.6,14.5,2.1c0.4,0.5,0.4,1.3-0.1,1.7c-0.5,0.4-1.3,0.4-1.7-0.1l0,0
	c-0.2-0.2-5.3-6.1-11.2-1.8c-2.2,1.9-3.2,4.7-2.8,7.5c0.5,3.2,2.9,5.6,7,7c4.9,1.7,9.3,1.1,13.1-1.6c5-3.6,7.7-10,7.8-14.3
	c0-4.2-1.7-8.2-4.7-11c-3.1-2.9-9.1-6.2-20-5.5c-15.6,1.1-21.1,7.3-28.7,15.8c-3.6,4.2-7.4,8.2-11.5,11.8
	c-10.1,8.9-18.6,12.2-32.4,12.8c-17.7,0.7-31.4,1.9-40.5,3.5c1.4,3,1.5,6.4,0.3,9.5c-1,2.7-3.6,5.8-7,6.8c-0.7,0.2-1.3,0.3-2,0.3
	c-1.8,0-3.6-0.7-5-1.9c-1.9-1.4-3.1-3.7-3-6.2c0.2-2.9,1.8-5.5,4.2-7.1c1.7-1.2,4.8-2.2,8.7-3.1c-3.4-4.5-10-7.9-18-9.2
	c-1.7-0.3-3.5-0.5-5.4-0.7c-0.6,0-1.3,0-1.9-0.1c-2.6-0.1-5.1-0.4-6.5-0.5c-27.8-1.1-62.8,5.1-81.9,9.6c0.1,0,0.2,0.1,0.3,0.1
	c3.6,1.5,6.5,4.4,8,8.1c1.9,5.9-0.2,12.4-5.4,16c0,0,0.1,0.1,0.1,0.1c0.1,0.2,2.3,4.5,0,8.6c-2.5,4.3-7.6,5.6-7.9,5.6
	c-0.1,0-0.2,0-0.3,0c-0.5,0-1-0.3-1.1-0.8c-0.1-0.2-1.6-5.3,0.8-9.6c0.2-0.4,0.5-0.7,0.8-1.1c-0.4,0-0.7,0-1,0
	c-7.6,0-10.5-7.3-10.6-7.4c-0.2-0.6,0.1-1.3,0.7-1.5c0.6-0.2,1.3,0.1,1.5,0.7c1.9,4.8,7.2,7.1,12,5.3c0,0,0,0,0,0
	c2.2-0.7,4.3-2,5.8-3.8c-1,0.2-1.9,0.3-2.9,0.3c-1.8,0-3.6-0.4-5.2-1.2c-4.2-2.2-4.7-7-4.7-7.2c0-0.5,0.2-0.9,0.6-1.1
	c0.2-0.1,4.4-2.5,8.6-0.3c2.5,1.4,4.4,3.7,5.5,6.4c1.1-2.6,1.2-5.4,0.4-8.1c-1.3-3-3.7-5.4-6.7-6.7c-2.1-0.8-4.4-0.9-6.6-0.3
	c-2.2,0.8-4.3,1.7-6.4,2.7c-0.3,0.2-0.7,0.4-1,0.6c-0.1,0-0.2,0.1-0.3,0.1c-1.2,0.6-2.4,1.3-3.6,1.9c-6.2,3.3-12.5,6.7-22.2,7.8
	c2.5,2.2,3.9,5.4,3.8,8.7c-0.4,6.1-5.4,10.3-5.6,10.5c-0.5,0.4-1.2,0.4-1.6-0.1c-0.2-0.2-4.7-5-4.3-11.1c0.3-3,1.8-5.8,4.2-7.7
	c-1.5,0.1-3,0.1-4.7,0.1c-9.6-0.2-21.4-5.4-32.8-10.4l-0.1-0.1c0.3,0.4,0.6,0.8,0.8,1.3c2.8,5.5,0.5,11.7,0.4,11.9
	c-0.2,0.6-0.9,0.9-1.5,0.7c-0.3-0.1-6.6-2-9.3-7.5c-2.5-5,0.2-9.9,0.5-10.4C466.6,222.5,441.2,216.1,440.9,216.1z M727.5,202.3
	c0,2.3,0.8,4.5,2.3,6.2c1.5-1.7,2.5-3.8,2.7-6.1c0-1.9-0.8-3.8-2.3-5C728.6,198.7,727.6,200.4,727.5,202.3L727.5,202.3z
	 M723.1,191.9c1.9-0.1,3.7-1,4.9-2.5c1.2-1.9,1.8-4.2,1.7-6.4c-2.2,0.5-4.2,1.7-5.6,3.5C723,188,722.6,190,723.1,191.9L723.1,191.9z
	 M704.8,209.4c2.1,0.9,4.4,1,6.6,0.4c-0.9-2.1-2.5-3.8-4.5-4.9c-1.8-0.8-3.8-0.7-5.5,0.1C701.8,206.9,703.1,208.5,704.8,209.4
	L704.8,209.4z M692.2,201.4c-0.5-2.2-1.7-4.2-3.4-5.7c-1.2,1.9-1.7,4.2-1.5,6.5c0.4,1.9,1.6,3.5,3.2,4.5
	C691.8,205.3,692.4,203.4,692.2,201.4L692.2,201.4z M677.9,232.7c-1.8,1.1-3,3-3.2,5.2c0,1.7,0.8,3.2,2.1,4.2
	c1.3,1.2,3.2,1.6,4.9,1.2c2.5-0.9,4.5-2.8,5.4-5.3c1-2.7,0.8-5.6-0.5-8.1C682.3,230.7,679.4,231.7,677.9,232.7L677.9,232.7z
	 M572.6,253c-1.9,0.3-3.6,1.5-4.6,3.1c-1,2-1.3,4.3-0.9,6.6c2.1-0.8,4-2.2,5.2-4.1C573.2,256.9,573.3,254.9,572.6,253L572.6,253z
	 M570.5,239.7c-1.7-0.8-3.8-0.8-5.5-0.1c0.4,1.9,1.6,3.5,3.2,4.5c2.1,0.9,4.4,1.2,6.6,0.6C574,242.7,572.5,240.9,570.5,239.7z
	 M537.7,237.6c2.6-0.3,4.9-1.7,6.4-3.8c2-3.1,1.8-6.9,1.5-8.8c-1.8,0.6-5.3,2-7.3,5.1C537,232.5,536.8,235.2,537.7,237.6
	L537.7,237.6z M525.2,250.2c-0.2,3.7,1.8,6.9,2.9,8.4c1.3-1.4,3.7-4.3,3.9-8c0-2.6-1.1-5.1-3-6.8
	C526.9,245.3,525.5,247.6,525.2,250.2L525.2,250.2z M505.5,234.7c3.7-0.5,6.4-3,7.7-4.4c-1.6-1-4.9-2.8-8.6-2.3
	c-2.6,0.4-4.8,2-6.1,4.2C500.4,233.9,502.9,234.9,505.5,234.7L505.5,234.7z M481.9,237.3c1.6,3.3,5,5.1,6.7,5.8
	c0.4-1.8,1-5.6-0.6-8.9c-1.3-2.3-3.5-3.9-6-4.4C480.9,232.2,480.9,234.9,481.9,237.3L481.9,237.3z M595.8,228c1.4,0,2.6,1.2,2.6,2.6
	s-1.2,2.6-2.6,2.6c-1.4,0-2.6-1.2-2.6-2.6c0,0,0,0,0,0C593.3,229.2,594.4,228,595.8,228C595.8,228,595.8,228,595.8,228L595.8,228z
	 M609.8,225.5c1.4,0,2.6,1.2,2.6,2.6s-1.2,2.6-2.6,2.6c-1.4,0-2.6-1.2-2.6-2.6c0,0,0,0,0,0C607.2,226.7,608.3,225.5,609.8,225.5
	C609.8,225.5,609.8,225.5,609.8,225.5L609.8,225.5z M623.7,223.6c1.4,0,2.6,1.2,2.6,2.6s-1.2,2.6-2.6,2.6c-1.4,0-2.6-1.2-2.6-2.6
	c0,0,0,0,0,0C621.1,224.8,622.3,223.6,623.7,223.6C623.7,223.6,623.7,223.6,623.7,223.6L623.7,223.6z M637.6,222.4
	c1.4,0,2.6,1.2,2.6,2.6s-1.2,2.6-2.6,2.6s-2.6-1.2-2.6-2.6C635.1,223.5,636.2,222.4,637.6,222.4
	C637.7,222.4,637.7,222.4,637.6,222.4L637.6,222.4z M651.6,221.9c1.4,0,2.6,1.2,2.6,2.6s-1.2,2.6-2.6,2.6c-1.4,0-2.6-1.2-2.6-2.6
	c0,0,0,0,0,0C649,223.1,650.2,221.9,651.6,221.9C651.6,221.9,651.6,221.9,651.6,221.9L651.6,221.9z"/>
</svg>
